<svg id="Background_copy_Image" data-name="Background copy Image" xmlns="http://www.w3.org/2000/svg" viewBox="0 0 360 351.84"><defs><style>.cls-1{fill:#272017;}.cls-2{fill:#a09f9e;}.cls-3{fill:#57524f;}.cls-4{fill:#dbd8d7;}.cls-5{fill:#c5c1c0;}.cls-6{fill:#6b6462;}.cls-7{fill:#a7a7a7;}.cls-8{fill:#201d1c;}.cls-9{fill:#b58927;}.cls-10{fill:#b28828;}.cls-11{fill:#0080c1;}.cls-12{fill:#019276;}.cls-13{fill:#037ebd;}.cls-14{fill:#d93f33;}.cls-15{fill:#a8874a;}.cls-16{fill:#a5894d;}.cls-17{fill:#4f3a15;}.cls-18{fill:#d73f33;}</style></defs><title>Artboard 1</title><path class="cls-1" d="M171.12,352.08c-1.07-.15-2.13-.39-3.21-.44a158.86,158.86,0,0,1-24.28-3.05c-6.66-1.4-13.28-3-19.83-4.89a159.66,159.66,0,0,1-24.27-9.26A201.09,201.09,0,0,1,79.6,323.63a172.71,172.71,0,0,1-23.35-17A168.35,168.35,0,0,1,34.61,284a203.81,203.81,0,0,1-17.68-26.48A275.77,275.77,0,0,1,2.37,227c-1.38-3.34.25-5.33,3-6.92a1.57,1.57,0,0,1,.7-.1c1.78-.05,2.25-.6,1.73-2.3-.6-1.93-1.55-3.77-2-5.73-1.16-5.07-2.27-10.15-3.12-15.27-.82-4.95-1.28-10-1.9-14.94-.18-1.47-.36-2.95-.54-4.42v-9.84c.65,0,.89.31,1.06,1a21.68,21.68,0,0,0,1.13,3.13,59.62,59.62,0,0,0,13.71,20.47c1.63,1.57,3.43,3,5.18,4.38.72.59,1.33.37,1.3-.44-.12-4.21,1.52-7.89,3.27-11.56a69.57,69.57,0,0,1,10.58-15.78,3.94,3.94,0,0,1,1.06-.61c.22,3.07.41,5.92.64,8.78a90.29,90.29,0,0,0,2.91,16.9c1.39,5,2.69,10,4.11,15,.74,2.59,1.69,5.1,2.45,7.68a2.47,2.47,0,0,1-2,3.17c-1.47.42-2.91,1-4.65,1.54,1.42,2.89,2.53,5.69,4.1,8.21,4.22,6.79,8.43,13.6,13,20.13,4,5.7,8.45,11.14,13,16.47a117.59,117.59,0,0,0,20,18.37,145.62,145.62,0,0,0,29,16.44c5.18,2.25,10.42,4.38,15.73,6.27a57.64,57.64,0,0,0,8.67,2c4.35.83,8.72,1.62,13.1,2.23s8.77,1.09,13.18,1.4a128.57,128.57,0,0,0,13.52.44,160.21,160.21,0,0,0,17.15-1.41c7.65-1.1,15.25-2.56,22.82-4.15a57.67,57.67,0,0,0,8.74-3A158.19,158.19,0,0,0,258.22,292a142.69,142.69,0,0,0,16.95-12c4.58-3.8,8.8-8,13.05-12.13a73.84,73.84,0,0,0,6.82-7.45c4.21-5.43,8.32-10.94,12.27-16.57a133.46,133.46,0,0,0,10.72-19c.73-1.51.63-1.81-.88-2.47s-2.8-1.1-4.17-1.72a2.61,2.61,0,0,1-1.77-3,31.22,31.22,0,0,1,2.39-8.09,103.2,103.2,0,0,0,6.75-23.41c.88-5.67,1.49-11.37,2.22-17.07,0-.2.07-.39.16-.86.5.3,1,.45,1.27.8,2.92,4.25,6.09,8.37,8.59,12.86,1.77,3.18,2.66,6.87,3.86,10.35a38.79,38.79,0,0,1,1,4c.31,1.36,1.28,1.73,2.39.89a56.16,56.16,0,0,0,13.44-15.46,50.57,50.57,0,0,0,3.51-6.21c1.19-2.71,2-5.56,3.35-8.35,0,2.32.13,4.65,0,7a196.23,196.23,0,0,1-5.67,37.4,70.8,70.8,0,0,1-2.65,7.52c-.62,1.58-.63,1.62.87,2.29a24.68,24.68,0,0,1,3.32,1.86c.86.56,1.53,3.23,1.1,4.23-3.19,7.3-6.21,14.68-9.64,21.87a162.87,162.87,0,0,1-13.58,23.05,154.49,154.49,0,0,1-14.73,18.46c-4.08,4.28-8.26,8.49-12.61,12.48a164,164,0,0,1-17.79,13.9,183.8,183.8,0,0,1-20.92,12.61c-6.37,3.24-12.92,6.14-19.41,9.16a119.36,119.36,0,0,1-23.62,8c-5.22,1.2-10.51,2.14-15.81,2.94-4.88.74-9.82,1.17-14.74,1.69-1.63.17-3.27.16-4.91.26a2.84,2.84,0,0,0-.72.25ZM34.92,212l-.85.29c-6.3,2.38-12.58,4.85-18.92,7.12-3,1.06-6,1.73-9.06,2.61a3.79,3.79,0,0,0-1.59.84c-1.15,1.16-1,2.54-.37,3.89,3.16,7,6.17,14,9.55,20.91a175.57,175.57,0,0,0,16.18,26.57c3.28,4.46,6.84,8.73,10.38,13a141.28,141.28,0,0,0,16,16.24A150.94,150.94,0,0,0,78.7,320.14c6,3.56,12.06,7.21,18.36,10.25,7.32,3.53,14.89,6.58,22.47,9.54a98.24,98.24,0,0,0,14,4.39c6.49,1.47,13.07,2.6,19.67,3.49s13,1.53,19.53,1.79c6.82.27,13.68.21,20.5-.19a203.18,203.18,0,0,0,20.34-2.23,132.35,132.35,0,0,0,28.07-7.72c5.33-2.13,10.64-4.34,15.85-6.75A202.58,202.58,0,0,0,281,319.89a182.49,182.49,0,0,0,31.7-25.18,174.76,174.76,0,0,0,14.48-16.41A200,200,0,0,0,352,236c1.14-2.6,2.21-5.22,3.3-7.84.45-1.09.34-3-.27-3.38-1.69-.95-3.13-2.32-5.13-2.75a28.54,28.54,0,0,1-3.85-1.3c-5.83-2.16-11.64-4.36-17.48-6.48a38.28,38.28,0,0,0-3.87-1,15.8,15.8,0,0,1-.6,3,200,200,0,0,1-13.86,27.18,157.74,157.74,0,0,1-18.49,24.69c-3.89,4.21-8.1,8.15-12.35,12a127.87,127.87,0,0,1-26.55,18.31,144.83,144.83,0,0,1-37,13.41,161.3,161.3,0,0,1-32.28,3.72c-5.49.06-11-.08-16.46-.45-5.25-.35-10.5-.92-15.69-1.71a125,125,0,0,1-28.77-8.25,143.66,143.66,0,0,1-20.33-10.38,155.07,155.07,0,0,1-23-17.14,164,164,0,0,1-21.69-23.76,166.16,166.16,0,0,1-19.7-34.16C36.87,217.19,35.94,214.6,34.92,212ZM358.51,176.6c-2.79,4.13-5.62,8.71-8.84,13s-6.95,8.22-11.85,10.79a5.59,5.59,0,0,1-1.86-3.15,58.46,58.46,0,0,0-9-21.48c-.79-1.14-1.8-2.13-2.89-3.41-.13.67-.21.94-.23,1.21a119.93,119.93,0,0,1-2.42,17.52,102.53,102.53,0,0,1-4.83,16.74c-1.19,3-2.15,6-3.24,9a1.16,1.16,0,0,0,.64,1.68,3.15,3.15,0,0,0,2,.11c.25-.09.19-1.12.2-1.71,0-.26-.21-.51-.32-.77-.7-1.69.14-4.53,1.87-5.4a7.07,7.07,0,0,1,5.81-.25c6.94,2.49,13.86,5.05,20.78,7.59,1.27.47,2.52,1,3.81,1.43.64.2,1.49.66,1.85-.49.84-2.65,1.87-5.27,2.48-8,1.74-7.65,3.35-15.34,4.92-23A59.72,59.72,0,0,0,358,182C358.23,180,358.38,178.08,358.51,176.6ZM36.22,172.2l-.33-.29a7,7,0,0,0-1.11,1,63.69,63.69,0,0,0-7,12A49.56,49.56,0,0,0,24,198.08a2.92,2.92,0,0,1-1,1.76c-.25.18-1.14-.27-1.58-.62A67.54,67.54,0,0,1,6.87,183.4c-1.76-2.64-3.4-5.35-5.1-8,.22,3.6.54,7.17,1,10.72.6,4.38,1.34,8.74,2,13.12a89,89,0,0,0,4.11,16.23,20,20,0,0,0,1.3,2.54c2.82-1,5.35-1.88,7.9-2.75,1.87-.64,3.77-1.22,5.64-1.87,4.56-1.58,9.09-3.23,13.67-4.75a6.73,6.73,0,0,1,2.9-.18c2.51.33,3.53,1.61,3.38,4.16-.07,1.23-.42,2.43-.54,3.66a1.36,1.36,0,0,0,1.46,1.55,1.11,1.11,0,0,0,1.23-1.4,28.45,28.45,0,0,0-1.1-4.61c-1.64-4.66-3.6-9.22-5-13.94a77.76,77.76,0,0,1-3.49-20.6C36.18,175.56,36.22,173.88,36.22,172.2Zm283.24,49.27c.34-.67.69-1.26.94-1.88.6-1.48,1.13-3,1.74-4.45.29-.7.6-1.4-.18-1.9s-1.54-1.48-2.76-.88a3.2,3.2,0,0,0-1.61,3.55,12.15,12.15,0,0,1,.27,3.1c0,.5-.54,1-.83,1.47l1.71.73C318.92,221.29,319.11,221.35,319.46,221.47Zm-277.29-8.7a6.26,6.26,0,0,0-.49-1.31,1.68,1.68,0,0,0-2.14-.81c-1.27.46-2.19,1.44-1.86,2.55A48,48,0,0,0,39.95,219c.07.16,1,.11,1.4-.09a1.17,1.17,0,0,0,.2-1.13,2.73,2.73,0,0,1-.12-3.44C41.71,213.81,41.93,213.27,42.17,212.77Z"/><path class="cls-2" d="M149.76.24h79a.26.26,0,0,0,0,.17l-1.08,0L153.35.48c-1.2,0-2.4,0-3.6,0C149.76.37,149.76.31,149.76.24Z"/><path class="cls-3" d="M313.68.24l-.15.26H270.59l-9,0c0-.07,0-.14,0-.21Z"/><path class="cls-4" d="M50.64.48V.24h37.2c0,.07,0,.13,0,.2Z"/><path class="cls-5" d="M87.83.44c0-.07,0-.13,0-.2H123.6c0,.07,0,.13,0,.2L100,.48C96,.48,91.9.45,87.83.44Z"/><path class="cls-6" d="M261.6.24c0,.07,0,.14,0,.21l-32.31,0a4.77,4.77,0,0,1-.59-.07.26.26,0,0,1,0-.17Z"/><path class="cls-7" d="M123.59.44c0-.07,0-.14,0-.2h26.16c0,.07,0,.13,0,.2-2.83,0-5.65,0-8.48,0Z"/><path class="cls-8" d="M123.59.44l17.68,0c2.83,0,5.65,0,8.48,0,1.2,0,2.4,0,3.6,0L227.6.42l1.08,0a4.77,4.77,0,0,0,.59.07l32.31,0,9,0h42.95c0,17.2,0,34.4,0,51.6-.06,17.84-.09,35.68-.36,53.51-.17,11.51-.68,23-1.19,34.52q-.49,11.07-1.47,22.12a71.51,71.51,0,0,1-1.8,8.44c-.29,1.35-.47,2.72-.78,4.06-.48,2.06-1,4.1-1.55,6.15a150.64,150.64,0,0,1-7.07,20.32c-1.19,2.85-2.62,5.6-3.82,8.45-3.76,8.95-9.08,17-14.54,24.93A163.87,163.87,0,0,1,263,256.28a170,170,0,0,1-25,21.07A171.52,171.52,0,0,1,213,291.85c-6.38,3-12.89,5.68-19.38,8.4a53,53,0,0,1-5.68,1.69c-3,.87-6,1.75-9,2.61a1.25,1.25,0,0,1-.71,0c-6.64-2.33-13.35-4.49-19.9-7.06a148.12,148.12,0,0,1-23.63-11.73c-6-3.68-11.85-7.58-17.49-11.76-4.64-3.44-8.85-7.45-13.27-11.2a113.46,113.46,0,0,1-12.72-12.93,170.1,170.1,0,0,1-22.37-34.1,203.2,203.2,0,0,1-10.09-24c-.23-.66-.2-1.4-.39-2.08-.48-1.69-1.06-3.35-1.53-5-.53-1.88-1-3.76-1.45-5.67-.7-3.28-1.43-6.57-1.93-9.88-.67-4.44-1.23-8.9-1.65-13.37-.45-4.81-.76-9.64-1-14.47-.35-7-.8-14.06-.84-21.09-.08-17,0-33.91.13-50.87.13-18.6.37-37.19.53-55.79,0-4.12-.07-8.24-.1-12.36a6.19,6.19,0,0,1,.07-.7l37.19,0c4.07,0,8.13,0,12.2,0Zm98.75,165.37a1.48,1.48,0,0,0,.13-.33c0-.92,0-1.84,0-2.76s.52-1.44,1.48-1.4c.72,0,1.43.17,2.15.15,2.18-.07,2.43.07,2.47,2.22.06,2.84.51,5.76-1.1,8.4a3.3,3.3,0,0,0-.22.8c-1.28,4.42-.46,8.9-.37,13.35,0,1.62,0,3.24,0,5H229c1.5,0,2.06.56,2.07,2.09,0,3.44-.1,6.89.1,10.32.11,1.94-1.11,2.83-2.21,3.94a2.3,2.3,0,0,0-.77,1.25c-.12,2.63-.18,5.27-.18,7.91,0,11.08.21,22.16.08,33.23-.05,4.34,1.36,8.28,2.29,12.36.49,2.17,1.23,4.29,1.65,6.47a2.56,2.56,0,0,0,1.7,2.08c1.08.47,2.14,1,3.24,1.42a1.47,1.47,0,0,0,1.19-.15c2.79-2,5.61-4,8.3-6.21a130.7,130.7,0,0,0,17.78-16.7c4.29-5,8.46-10.14,12.44-15.4a125.46,125.46,0,0,0,12.21-19.92c2.86-5.73,5.46-11.6,8-17.49A82.81,82.81,0,0,0,302,181.25c.61-2.89,1.58-5.71,2.29-8.58.65-2.62,1.27-5.26,1.71-7.92.61-3.69,1.2-7.4,1.51-11.13.57-6.85,1.2-13.7,1.31-20.56.31-19.11.37-38.23.51-57.34q.15-19.62.25-39.23c0-9.2,0-18.4,0-27.6V4.11H308l-43.56,0Q174.32,4,84.21,4,70.05,4,55.9,3.82c-1.22,0-1.56.35-1.55,1.57,0,3.84-.07,7.68-.06,11.51,0,10.88.12,21.75.08,32.63,0,12.64-.2,25.27-.32,37.9-.08,8.6-.3,17.2-.22,25.79.09,9.79.36,19.58.71,29.37.17,4.67.58,9.33,1.11,14s1.46,9.53,2.05,14.31c.63,5,2.2,9.81,3.46,14.68.21.83.7,1.59.94,2.41.51,1.71.82,3.49,1.44,5.15,2,5.26,3.65,10.67,6.14,15.68,3.69,7.44,7.83,14.68,12,21.85a96.37,96.37,0,0,0,12.19,16.64c4.62,5,9.58,9.71,14.41,14.52a23.91,23.91,0,0,0,2.24,1.95c3.41,2.64,6.82,5.27,10.27,7.86a1.55,1.55,0,0,0,1.3.14,17.18,17.18,0,0,0,2.7-1.47,2,2,0,0,0,.63-1c.36-1.13.63-2.29,1-3.42.61-1.91,1.34-3.78,1.85-5.71a23.87,23.87,0,0,0,.62-4.11c.42-5,1-9.94,1.14-14.92.22-10.59.14-21.19.26-31.79a3,3,0,0,0-1.2-2.75,3.48,3.48,0,0,1-1.47-3.2c.18-2.95.2-5.91.33-8.87.05-1.22.22-2.43.35-3.71a24.31,24.31,0,0,1,3.2-.22c1.21.07,1.47-.42,1.45-1.53-.11-5-.2-10.07-.18-15.11a4.85,4.85,0,0,0-1.45-3.85,2.66,2.66,0,0,1-.78-1.65c-.08-2.08,0-4.16,0-6.24,0-.31.42-.86.66-.87,1.9-.07,3.81,0,5.85,0v4.47h2.35v-4.38h6.7v3.87h2.95c0-1,0-2,0-2.95,0-.72.24-1,1-1,1.52,0,3,0,4.56,0,.73,0,1,.25,1,1a28.63,28.63,0,0,0,0,4.32,4.18,4.18,0,0,1-2,4.42,1.75,1.75,0,0,0-.66,1.24q-.18,7.79-.24,15.59c0,2.63,0,2.63,2.67,2.78a1.76,1.76,0,0,1,.36,0c.93.26,1.64.61,1.59,1.84-.07,1.83,0,3.68.11,5.51,0,.35.41,1,.65,1,2.38.07,4.77,0,7.27,0,0-.56,0-.95,0-1.34,0-1.6-.11-3.2-.1-4.79s.54-2,2-2h2.39a2.42,2.42,0,0,0,.14-.44c0-6.23,0-12.46-.05-18.69a2.26,2.26,0,0,0-.79-1.33,1.76,1.76,0,0,1-.72-1.61c.11-1.22-.08-2.47-.07-3.71s.13-2.36.2-3.62c1.33,0,2.49,0,3.64,0,2.52.06,3-.41,2.19,2.63a.78.78,0,0,0,0,.24c0,.8.17,1.51,1.24,1.54,1.86.06,2,0,2-1.29,0-.76,0-1.52,0-2.28s.41-1.22,1.24-1.2,1.76,0,2.64,0c2.13,0,2.29.17,2.1,2.19-.29,3-.26,3.06,2.81,2.37a8.81,8.81,0,0,1-.16-1.39c0-.51.2-1,.23-1.53.09-1.6.43-1.83,2-1.49a4.8,4.8,0,0,0,1.87.08,1.82,1.82,0,0,1,2.11,1.62c-.06,1.44-.28,2.88-.2,4.31a4.57,4.57,0,0,1-1.53,3.93,2.4,2.4,0,0,0-.69,1.56c-.12,5.68-.17,11.35-.23,17a6.08,6.08,0,0,0,.13.91c.42,0,.73,0,1.05.06,3.49.34,3.64.16,3.49,4.06,0,.12,0,.24,0,.36,0,1,.09,1.91.15,2.86,0,.72.41,1,1.18,1,1.72-.05,3.44-.05,5.16,0,.74,0,1-.26,1-1,0-1.76-.05-3.52,0-5.28a1.68,1.68,0,0,1,1.72-1.73,7.94,7.94,0,0,1,1.32,0c.93.12,1.33-.3,1.37-1.19,0-.32.11-.63.11-.95.11-5.43.23-10.86.27-16.29a3.67,3.67,0,0,0-.73-1.64c-.34-.57-1.07-1.05-1.11-1.61a49.46,49.46,0,0,1,0-6.23c0-.57.64-1.52,1.06-1.57a43.4,43.4,0,0,1,4.79-.05c.63,0,.85.3.79.9a17.23,17.23,0,0,0-.21,2.38,1.31,1.31,0,0,0,.57,1,1.62,1.62,0,0,0,2.23-1.69,5,5,0,0,1,0-1.55c.14-.41.55-1,.9-1a18.15,18.15,0,0,1,3.58-.13c1.75.11,2.11.73,1.61,2.43s-.29,2,1.56,2C221.76,165.86,222,165.83,222.35,165.82ZM236,273.92c-3.86-2-7.52-3.78-11.1-5.73-5-2.74-9.95-5.75-15.73-6.63a13,13,0,0,0-5.32.07,23.45,23.45,0,0,0-5.38,2.8c-1.32.8-1.33,1.65-.07,2.55,3.07,2.2,6.21,4.32,9.28,6.52.35.25.76,1.09.67,1.19-.46.47-1,.9-1.76.25-.44-.39-1-.61-1.49-1-3.79-2.89-7.56-5.82-11.35-8.7-4.22-3.21-8.65-6-14.08-6.58a11.45,11.45,0,0,0-4.55.37,18,18,0,0,0-4.7,2.49c-5.14,3.62-10.2,7.36-15.29,11a29.27,29.27,0,0,1-2.69,1.76c-.26.15-.7,0-1.06,0a4.8,4.8,0,0,1,.24-1,1.55,1.55,0,0,1,.52-.48c1.77-1.29,3.55-2.55,5.31-3.86,1.37-1,2.71-2.06,4.09-3.13a10.74,10.74,0,0,0-6.3-4.48A14.76,14.76,0,0,0,144,262.62c-3.66,1.94-7.38,3.74-11.09,5.58-1.13.56-2.33,1-3.46,1.56-1.37.69-2.69,1.48-4.05,2.21-.86.46-1.73.87-2.91,1.45,4.24,2.83,8.09,5.6,12.14,8,3.76,2.27,7.71,4.25,11.63,6.24s8,4.11,12.1,5.8c6.44,2.64,13,5,19.53,7.44a1.23,1.23,0,0,0,.76,0c3.17-1,6.31-2.11,9.5-3.09,1.63-.5,3.36-.68,5-1.23,2.29-.77,4.52-1.73,6.76-2.65a171,171,0,0,0,26.67-13.45C229.86,278.45,233,276.09,236,273.92Zm-85.26-14.55c0-.47.11-.86.12-1.26.11-3.8.27-7.6.29-11.39,0-9.72,0-19.44,0-29.16,0-.77,0-1.4,1-1.27,2.65.34,5.28.72,7.58,2.23,1,.67,1.8.38,2.53-.6a34.4,34.4,0,0,1,3.08-3.44,21.11,21.11,0,0,1,1.9-1.45c1.12-.9,1.36-.86,2.05.42s.94,1.45,2.35.79c.25-.12.48-.29.72-.43,1.54-.88,1.54-.88.83-2.46-.33-.74-.14-1.25.65-1.44a27,27,0,0,1,12.33.1,1.11,1.11,0,0,1,.63.86,14.78,14.78,0,0,1-.43,2.22c1,.62,1.93,1.32,3,1.91s1.59.41,2.13-.63c.64-1.24.88-1.38,1.91-.41a36.75,36.75,0,0,1,3.85,4.2c.69.89,1.16,1,2.14.46a14.76,14.76,0,0,1,8-2.15c.91,0,1.3.33,1.22,1.29-.06.79,0,1.6,0,2.4q0,19-.09,37.92c0,1.86.09,2,1.95,2.29a10.63,10.63,0,0,1,2.66.54c5.15,2.44,10.26,5,15.38,7.46.2.1.35.32.55.43s.65.34,1,.51c.09-.4.32-.84.23-1.19-.42-1.64-1-3.25-1.4-4.88-.59-2.16-1.27-4.31-1.69-6.51a70.39,70.39,0,0,1-.89-13.61c.06-10.48,0-20.95-.1-31.43,0-1.1-.17-2.2-.27-3.36-31.6-.08-63.09-1-94.58.09,0,1.25,0,2.32,0,3.4q-.2,21.78-.4,43.55a2.64,2.64,0,0,1-.06.83c-.6,1.73-1.32,3.43-1.83,5.18-.62,2.12-1.07,4.28-1.57,6.43a5.79,5.79,0,0,0-.07.88,3.17,3.17,0,0,0,1-.12q5.09-2.4,10.16-4.85C142.47,261.84,146.3,259.88,150.78,259.37ZM185,192.7v7.94c-3,0-6,.07-8.94,0-.79,0-1.62-.38-1.41-1.7a36.22,36.22,0,0,0,.24-5,1.73,1.73,0,0,0-1.7-1.61c-1.59.07-3.19.13-4.78.22-.58,0-1.15.12-1.81.2.12,2.35.29,4.53.27,6.71,0,.41-.79.86-1.29,1.18-.21.13-.6-.07-.92-.09l-8-.32c-.74,0-.85-.4-.82-1.11.08-2.17,0-4.34,0-6.57-2.15,0-4.3-.07-6.45,0a1.52,1.52,0,0,0-1.61,1.78c.09,1.55.05,3.12,0,4.68a1.49,1.49,0,0,1-1.69,1.66l-6.12,0c-1.9,0-2.43-.51-2.5-2.45-.06-1.71-.08-3.43-.2-5.14,0-.29-.4-.79-.63-.8-2.43-.06-4.86,0-7.34,0v11.67c.46,0,.73.07,1,.08,3.84.07,7.68.18,11.51.19q32.69.08,65.38.12,7.74,0,15.47-.09c2.22,0,4.44-.21,6.63-.32V193c-2-.12-3.84-.27-5.7-.34-1.18,0-1.74.57-1.74,1.75,0,1.56.1,3.12,0,4.68,0,.85-.1,2-1.36,2-2.44.07-4.88.06-7.32,0a1.86,1.86,0,0,1-1.86-2.1c.09-1.48.25-2.95.3-4.42,0-1.28-.59-1.87-1.86-1.87H204.9c-1.34,0-1.89.71-1.73,2s.27,2.63.3,3.94c0,1.6-.53,2.1-2.08,2-.56,0-1.12,0-1.68,0h-5.63c-1,0-1.42-.42-1.37-1.46.08-1.68.07-3.36.07-5,0-1.34-.61-1.84-1.92-1.67a15.57,15.57,0,0,1-1.79.09C187.76,192.71,186.45,192.7,185,192.7Zm7.7,70.16c0,.15,0,0,0-.06q0-16.92,0-33.84a2.83,2.83,0,0,0-.17-1.05c-1.27-3.12-2.76-6-5.77-8a12,12,0,0,0-10.32-1.73,21.92,21.92,0,0,0-4,2,10.34,10.34,0,0,0-5.87,9.42c-.17,10.48-.15,21-.19,31.43a10.33,10.33,0,0,0,.16,1.18c3.06-1.65,5.32-4.41,9.06-4.77.11-3.25.22-6.43.34-9.61,0-1-.48-1.69-1.45-1.66a23.37,23.37,0,0,0-5.07.54c-1.54.4-2.15.2-2.11-1.44,0-2.16.16-4.31.24-6.47,0-1.24.41-1.54,1.62-1.3q2.46.48,4.92.93c1.12.2,1.8-.32,1.86-1.37.08-1.51-.4-2.17-1.64-2.12s-2.38.21-3.58.26c-.76,0-1.22-.13-1.12-1.17.17-1.79.11-3.6.13-5.39,0-1.5.24-1.68,1.79-1.43,1.23.2,2.46.38,3.7.47.21,0,.68-.48.66-.7-.14-1.34-.38-2.67-.61-4-.13-.76-.29-1.51-.53-2.68,3.21,0,6,0,8.79,0,1.43,0,1.52.07,1.12,1.45-.55,1.95-1.16,3.9-.29,6.18,1.14-.23,2.3-.39,3.42-.69,1.36-.36,1.67-.24,1.74,1.23.09,1.92,0,3.84.09,5.76,0,1-.31,1.36-1.24,1.23-1.3-.17-2.59-.41-3.9-.52-1-.09-1.43.39-1.34,1.43.16,1.78.62,2.17,2.4,2,.43-.05.85-.25,1.28-.28,1.79-.12,3.59-1.37,5.45.07,0,2,0,4,0,6.05,0,2.52-.06,2.66-3,2.15-.12,0-.22-.12-.33-.13-1.41-.13-2.82-.31-4.23-.34-.26,0-.78.6-.77.92.08,2.91.12,5.84.46,8.73a4.9,4.9,0,0,0,1.64,3C188.13,260.13,190.48,261.44,192.68,262.86Zm1.4-7.3c0,2.79-.09,5.38,0,8,.07,1.53,1.28,2,2.43,1.09,3.12-2.51,6.29-4.9,10.66-5V218.19c-4.25-.35-7.26,1.83-10,4.6-2.34,2.39-2.69,5.51-3,8.62-.08.79.37,1.24,1.27,1.17a9.31,9.31,0,0,1,6.18,1.21c.22.15.54.13.8.23,1.09.45,2.18.92,3.51,1.49-3.82,2.56-7.7,3-11.73,2.71-.12,3.35-.2,6.46-.37,9.57-.06,1.09.29,1.67,1.37,1.78,2.64.28,5.32.31,7.72,1.71a20.22,20.22,0,0,0,2.48,1l-.07.4a14.4,14.4,0,0,1-1.5.92A19.9,19.9,0,0,1,194.08,255.56ZM152.93,235a9.9,9.9,0,0,1,1.61-1,19.22,19.22,0,0,1,8.36-1.53c1.63.14,1.87-.24,2-1.87.53-5-2.9-9.64-7.18-11.45a15.81,15.81,0,0,0-4.14-.95c-1-.12-1.44.39-1.44,1.52,0,12.79,0,25.59,0,38.38,0,.42,0,.85.06,1.23,3.92.58,7.34,1.89,10.05,4.73a1.5,1.5,0,0,0,1.23.45,1.63,1.63,0,0,0,1-1.08,47.73,47.73,0,0,0,.25-5c0-3.27,0-3.26-3.35-3.28a10.06,10.06,0,0,1-3.08-.2c-1.7-.58-3.31-1.44-5.16-2.28-.21-.55.16-1.06,1-1.35.41-.15.81-.33,1.23-.46,2.47-.76,4.85-1.92,7.6-1.11,1,.29,2-.86,2-2,0-2.48,0-5,0-7.44,0-1.91-.44-2.31-2.31-2.32-2.23,0-4.54.49-6.52-1.09-.16-.13-.48,0-.7-.14C154.44,236.43,153.31,236.4,152.93,235Zm30.59,22.17c-1.2-4.08-.89-7.85-1-11.6,0-.67.13-1.1.89-1.07,1.79.06,3.57.1,5.35.19.69,0,1.37.15,2.06.23v-6.14c-1.28.27-2.43.58-3.6.74s-2.47.1-3.69.27-1.61-.52-1.61-1.49c0-1.47.14-2.93.22-4.52,1-.08,2-.21,2.9-.23s2,.08,3,.13c0-.35.07-.66.06-1,0-1.19.36-2.89-.25-3.43s-2.33-.3-3.55-.29c-2.46,0-2.48,0-2.08-2.5.24-1.51.36-3,.54-4.61h-6.2c.17,1.88.35,3.66.48,5.44a1.59,1.59,0,0,1-1.84,1.88c-.87,0-1.74-.23-2.61-.31-1.08-.1-1.49.38-1.37,1.47a18,18,0,0,1,.08,1.91c0,.86.26,1.32,1.26,1.25,1.42-.09,2.85,0,4.32,0a2.28,2.28,0,0,1,.13.53c0,1.12.09,2.24.07,3.36,0,1.93-.23,2.16-2.15,2.13-2.13,0-4.27-.18-6.29-.28,0,1.62,0,3.2,0,4.79,0,.76.32,1,1.22.94,2.13-.24,4.29-.29,6.44-.4.67,0,1,.19,1,1-.09,2-.13,4-.16,6,0,1.75,0,3.5,0,5.16Zm-7.65-57.7c2.42-.08,4.61-.21,6.81-.2.89,0,1.11-.35,1.15-1.09.06-1.28.18-2.55.2-3.83.05-3.11,0-3.12,3.12-3.32.65,0,1.06-.22,1.07-1,.06-5.51.16-11,.2-16.54,0-1.12-.68-1.67-1.83-1.69l-4.44-.08c-2.88-.06-5.75-.15-8.63-.17a1.92,1.92,0,0,0-2.18,2.15c-.07,3.6-.16,7.19-.21,10.79,0,2.1,0,4.2,0,6.35,1.08,0,1.92,0,2.75,0,1.4.05,2,.66,2,2C175.87,195,175.87,197.1,175.87,199.45Zm-41.59-8.64h1.89c2.2,0,2.2,0,2.3,2.23,0,.2,0,.4,0,.6.08,1.51.1,3,.27,4.54,0,.38.51,1,.81,1,2.27.09,4.54,0,6.86,0,0-2.11,0-4.06,0-6s.65-2.4,2.56-2.24,2.43-.24,2.43-2.15q0-8,0-15.95c0-1.08-.51-1.55-1.51-1.53-4.15.07-8.31.15-12.46.18-2.91,0-3.11,0-3.19,2.82C134.17,179.78,134.28,185.21,134.28,190.81Zm86.08.4h4.77c-.16-6.49.75-12.86-.21-19.15-5.14,0-10.17,0-15.2,0a1.44,1.44,0,0,0-1.47,1.56c0,3.84-.13,7.67-.12,11.51,0,2,.18,4,.29,6.15h1.33c2.83,0,2.81,0,2.89,2.86,0,1.56.12,3.11.28,4.66,0,.31.46.83.73.84,2.18.07,4.36,0,6.72,0C220.36,196.8,220.36,194.1,220.36,191.21Zm7.87,14.44c-32.73-.27-65.31-.57-97.89-.37l-.1.6a7.1,7.1,0,0,0,1.61.44c7.67.25,15.34.62,23,.67,19.51.11,39,.08,58.53.09,4.2,0,8.4-.11,12.6-.1A2.33,2.33,0,0,0,228.23,205.66ZM144.6,162.73h-3.79v3.75h-5c-.06-1.29-.12-2.51-.18-3.71h-3.45v5.4h21.62v-5.42h-3.22v3.74h-6C144.6,165.23,144.6,164,144.6,162.73Zm24.9,5.61h21.18v-5.26a15.84,15.84,0,0,0-2.4.14,1.33,1.33,0,0,0-.82.83c-.21.84,0,2.08-.46,2.49s-1.73.2-2.63.25h-.12c-2.41,0-2.44,0-2.57-2.47,0-.8-.19-1.21-1.17-1.15-1.94.13-1.94.06-1.94,2a4.43,4.43,0,0,0,0,.6c.09.64-.19,1-.82,1.06-1.53.1-3.06.17-4.65.25,0-1.32,0-2.39,0-3.46,0-.31-.32-.84-.53-.85-1-.09-2,0-3.12,0,0,1.71,0,3.27,0,4.82C169.43,167.74,169.46,167.94,169.49,168.35Zm54.41-4.8c0,.32,0,.55,0,.79.09,3.76-.3,3.28-3.28,3.24a2.52,2.52,0,0,1-1.85-.69,8.22,8.22,0,0,1-.63-2.44c-.11-.43-.18-1.09-.47-1.23a1.75,1.75,0,0,0-2.58,1.71c0,.36,0,.72,0,1.08a1.46,1.46,0,0,1-1.66,1.52c-.48,0-1,0-1.44,0-2.64,0-2.64,0-2.69-2.66,0-1.69,0-1.69-1.76-1.66-.24,0-.55-.08-.7,0-.36.28-.87.63-.91,1a21.4,21.4,0,0,0,0,3.47,1.05,1.05,0,0,0,.64.75,11.23,11.23,0,0,0,2.37.22q7.25-.07,14.5-.2c1.22,0,2.44-.19,3.76-.3,0-1.07,0-2,0-3,0-2.16-.53-2.53-2.65-1.9C224.37,163.36,224.18,163.44,223.9,163.54ZM185.38,211.1c-1.6-.14-3-.35-4.4-.37s-3.1.17-4.65.23c-1.2,0-1.74.92-1.24,2.08a13.22,13.22,0,0,1,.64,1.66c.51,1.84.49,1.84,2.35,1.58a9.71,9.71,0,0,1,1.31-.06H184Zm-14.09,7.72c-.89-1.27-1.71-2.44-2.54-3.61a.94.94,0,0,0-1.6-.19c-1.48,1.38-3,2.71-4.36,4.2a2.06,2.06,0,0,0,.07,1.84c.71,1.27,1.62,2.42,2.44,3.62.21.3.39.62.78,1.24A15.72,15.72,0,0,1,171.29,218.81Zm22.19,6.86c1-1.47,2-2.73,2.84-4.05.29-.45.66-1.27.46-1.56a30.91,30.91,0,0,0-3.28-4.21c-.93-1-1.44-.79-2.24.4L189,219.53C191.2,221,192.38,223.35,193.48,225.68Zm-38.09,26.83a9.68,9.68,0,0,0,2,.81c2,.28,4.1.46,6.16.68.77.08,1.41-.07,1.35-1s-.12-2.1-1.2-2.19A13.86,13.86,0,0,0,155.39,252.51Zm9-18.6c-2.93.16-5.81-.14-8.7,1.31a9.89,9.89,0,0,0,1.27.88c2.24,1,4.6.73,6.94.61a1.28,1.28,0,0,0,1-1.84C164.76,234.55,164.58,234.24,164.41,233.91Zm29.83,19.9a21,21,0,0,0,8.47-1.21,5.85,5.85,0,0,0-1.62-1,46.47,46.47,0,0,0-5.19-.76c-1.7-.14-2.08.36-1.87,2.08A6.72,6.72,0,0,0,194.24,253.81Zm-40.55-84.19-.1-.3H132.47l-.07.32a8.33,8.33,0,0,0,2,.5q8.81,0,17.63,0A6.45,6.45,0,0,0,153.69,169.62Zm15.53-.35-.08.33a7.05,7.05,0,0,0,1.86.54q8.93,0,17.87,0a5.05,5.05,0,0,0,1.56-.57l-.12-.27Zm33.65,66.1a5.66,5.66,0,0,0-1.25-.71,16.4,16.4,0,0,0-6.21-.61c-.4.06-1.1.29-1.1.45a10.46,10.46,0,0,0,.31,2.19c0,.07.27.13.42.14A14.33,14.33,0,0,0,202.87,235.36Zm4.57-65.31v.26h18.38v-.26Zm-19.71,48.37a1.48,1.48,0,0,0,1.3-1.7,5.45,5.45,0,0,0-2.51-1.82c-.87-.24-1.27.74-1.32,1.59S186.73,218.43,187.73,218.43ZM174.9,217a10.57,10.57,0,0,0-.29-1.3c-.7-1.91-1.69.49-2.51-.13,0,0-.64.47-.62.69.12,1.44,1,1.91,2.32,1.32C174.19,217.37,174.57,217.14,174.9,217Z"/><path class="cls-9" d="M34.92,212c1,2.62,1.95,5.21,3,7.73a166.21,166.21,0,0,0,19.7,34.16,164,164,0,0,0,21.69,23.76,155,155,0,0,0,23,17.14,143.66,143.66,0,0,0,20.33,10.38,125,125,0,0,0,28.77,8.25c5.2.79,10.45,1.36,15.69,1.71,5.47.36,11,.51,16.46.45a161.3,161.3,0,0,0,32.28-3.72,144.83,144.83,0,0,0,37-13.41,127.82,127.82,0,0,0,26.55-18.31c4.25-3.85,8.46-7.79,12.35-12a157.7,157.7,0,0,0,18.49-24.69,199.93,199.93,0,0,0,13.86-27.18,15.89,15.89,0,0,0,.6-3,38,38,0,0,1,3.87,1c5.84,2.12,11.65,4.32,17.48,6.48a28.45,28.45,0,0,0,3.85,1.3c2,.43,3.44,1.8,5.13,2.75.6.34.72,2.28.27,3.38-1.09,2.62-2.15,5.25-3.3,7.84a200,200,0,0,1-24.81,42.25,174.89,174.89,0,0,1-14.48,16.41A182.61,182.61,0,0,1,281,319.89a202.59,202.59,0,0,1-23.5,12.82c-5.21,2.4-10.52,4.61-15.85,6.75a132.36,132.36,0,0,1-28.07,7.72,202.9,202.9,0,0,1-20.34,2.23c-6.81.4-13.68.46-20.5.19-6.53-.26-13.06-.92-19.53-1.79s-13.18-2-19.67-3.49a98.12,98.12,0,0,1-14-4.39c-7.58-3-15.15-6-22.47-9.54-6.3-3-12.32-6.69-18.36-10.25a150.94,150.94,0,0,1-22.42-16.68,141.28,141.28,0,0,1-16-16.24c-3.54-4.27-7.09-8.54-10.38-13a175.57,175.57,0,0,1-16.18-26.57c-3.38-6.88-6.39-13.93-9.55-20.92-.61-1.35-.78-2.74.37-3.89A3.79,3.79,0,0,1,6.1,222c3-.89,6.11-1.55,9.06-2.61,6.34-2.27,12.62-4.74,18.92-7.12Zm26.27,61.39a4,4,0,0,0-.43-1.18q-4.59-5.75-9.24-11.45a2.62,2.62,0,0,0-.82-.46,3.1,3.1,0,0,0,.13.84,2.09,2.09,0,0,1-.76,3c-1.65,1.2-3.33,2.35-5,3.52l-2.2,1.51c.13-.54.17-.77.24-1q1.85-6.26,3.69-12.52c.12-.41.34-1,.17-1.26-1.24-1.93-2.57-3.79-3.87-5.68l-.36.14a5.73,5.73,0,0,0,.1.91,2.7,2.7,0,0,1-1.26,3.47c-3.27,2.29-6.54,4.59-9.82,6.88-2.12,1.47-2.56,1.43-4.42-.27,0,0-.14,0-.21,0-.13.78,3,5.43,4.06,5.94a2,2,0,0,0,0-.58c-.8-2.28-.72-2.55,1.21-4l1-.7,8.65-6c-1.82,7-4,13.58-5.46,20.4a2.55,2.55,0,0,0,1.08-.46c4.2-2.92,8.38-5.86,12.59-8.77,2-1.41,2.15-1.38,4.14.22,1.16.94,1.23,2,.09,3q-5.21,4.42-10.47,8.78c-1.89,1.56-2.05,1.51-3.93-.09,0,0-.14,0-.39,0a2,2,0,0,0,.21.68q3,3.55,6,7.06c.15.17.52.16.79.23-1.38-2-1.3-2.67.46-4.1s3.45-2.85,5.16-4.29,3.34-2.86,5-4.26c1.45-1.2,2-1.15,3.35.2a2,2,0,0,0,.59.29,3.11,3.11,0,0,1,.26,3.37q-3.23,8.51-6.39,17a4.17,4.17,0,0,0-.12,1,4,4,0,0,0,1.08-.11c5.13-2,10.24-4.09,15.37-6.1,1.44-.56,2.88-1.2,4.51-.64s1.8,1.26.81,2.5q-4.58,5.77-9.23,11.49a1.63,1.63,0,0,1-2.52.31c-.29-.18-.59-.33-.89-.5l-.31.45L77,312.91c2.11-1.48,4.43-3.88,4.48-4.67a1.33,1.33,0,0,0-.45.1c-3.88,2.55-6.72.95-9.29-1.32-.64-.56-1-1.21-.39-2,1.39-1.79,2.82-3.55,4.23-5.31,2.07,1.44,2.12,2.71.2,6.32.5-.2.85-.24,1-.43q3-3.58,6-7.2c.1-.13,0-.4,0-.61-.21,0-.47,0-.61.09-.38.29-.68.68-1.06,1-1.72,1.27-3.38,1.14-4.5-.37l4.83-5.94c.79.66,1.48,1.27,2.2,1.84,2.33,1.81,2.76,3.4,1.67,6.18a5.11,5.11,0,0,0-.18,1.08l.36.14,3.39-4.11c1.86.88,2.33,1.61,1.63,2.85-2.44,4.31-4.94,8.58-7.42,12.88a1.63,1.63,0,0,1-2.42.72,3.3,3.3,0,0,0-1-.13l-.08.37,8.79,5,.3-.44a4,4,0,0,1-.87-.77c-.31-.5-.85-1.25-.68-1.6,1-2.14,2.23-4.19,3.33-6.21,1.32.32,1.15,1.27,1.23,2,.29,2.9.5,5.81.81,8.71a1.69,1.69,0,0,0,.7,1.09c1.38.88,2.81,1.68,4.24,2.49a3.84,3.84,0,0,0,.86.22c-2-3.75-1.15-7.75-2-11.58l1.35.14a4.86,4.86,0,0,0,5.19-2.84,4.57,4.57,0,0,0-.89-5.51,43.6,43.6,0,0,0-6-4.27c-2.4-1.5-5.11-2.55-7.33-4.26C83.15,292.39,78,288,72.71,283.63c-.12-.1-.24-.29-.36-.3a2,2,0,0,0-.62.17,3,3,0,0,0,.21.39c1.36,1.73,1.17,2.52-.89,3.39s-3.91,1.61-5.87,2.4c-1.27.52-2.55,1-4.06,1.61.21-.66.31-1,.45-1.39q1.82-4.75,3.65-9.5c.63-1.63,1-1.73,2.4-.68a1,1,0,0,0,.5.18c-1.92-2.07-3.94-4.28-6-6.45C62,273.29,61.5,273.39,61.19,273.37Zm210.2,26.42a10.84,10.84,0,0,0,10.5,10.51c4.65,0,11-4.93,10.76-10.68s-4.84-10.58-10.2-10.71C277.88,288.8,270.91,293.7,271.39,299.79ZM235.9,318.37c.47.23.65.3.82.4q8.29,4.57,16.57,9.14a11.56,11.56,0,0,0,1.45.54,4.59,4.59,0,0,0-.1-.67q-2.94-7.27-5.89-14.54c-.62-1.53-1.32-3,.73-4.1a.5.5,0,0,0,.15-.47.5.5,0,0,0-.46-.18c-1.95.77-3.88,1.55-5.82,2.34l.06.41a6.6,6.6,0,0,0,1.09,0,2.06,2.06,0,0,1,2.57,1.39c.3.78.67,1.54,1,2.31.77,1.9,1.52,3.81,2.39,6-4.35-2.46-8.41-4.77-12.49-7a2.13,2.13,0,0,0-1.52-.23c-1.81.63-3.57,1.38-5.34,2.12-.21.09-.33.41-.49.63a2.42,2.42,0,0,0,.69.14c1.75-.19,2.61.3,3.26,1.9l4.29,10.67c1.19,3,1.18,3-1.16,4.93.12.14.3.42.36.4,2.17-.85,4.32-1.73,6.48-2.61l-.07-.4a5.45,5.45,0,0,0-.94,0c-1.63.29-2.38-.1-3-1.6-.18-.4-.33-.82-.49-1.22Zm-28.63,14.69a42.28,42.28,0,0,0,4.08-1.16c2-.8,3.65-2,3.95-4.4a4.83,4.83,0,0,0-2.5-5.15,7.13,7.13,0,0,0-4.89-.63c-2.71.45-5.41,1-8.11,1.51-.66.13-1.32.29-2,.43l0,.41a5.67,5.67,0,0,0,1.18.13,1.64,1.64,0,0,1,2,1.56c.3,1.69.66,3.37,1,5.05.59,3,1.2,6,1.74,9,.27,1.56,0,1.89-1.43,2.42a3.6,3.6,0,0,0-.78.54l.17.34,9.93-1.94c0-.17,0-.33,0-.49-.46,0-.91-.11-1.37-.1-.73,0-1.42-.1-1.6-.93C208.16,337.52,207.74,335.33,207.27,333.06Zm61.46-35.43-.32-.19c-1.69,1-3.39,1.94-5.06,2.94-.21.13-.3.46-.45.7a2.38,2.38,0,0,0,.71,0c1.58-.57,2.24-.41,3.12,1,1.35,2.21,2.63,4.48,3.92,6.73a6.2,6.2,0,0,1,.31.86c-4.46-1.76-8.73-3.42-13-5.13a2.17,2.17,0,0,0-2.14.14c-1.5.92-3,1.77-4.54,2.67-.23.14-.34.46-.5.69,2-.4,3.32-.16,4,.94,2.26,3.86,4.5,7.73,6.69,11.63.82,1.46.63,2.08-.56,3.26a3.28,3.28,0,0,0-.45.84l.31.17,6.07-3.54-.1-.34a4.38,4.38,0,0,0-1,.13c-1.43.52-2.27.31-3.06-1-1.12-1.84-2.19-3.72-3.27-5.58-1-1.67-1.93-3.35-3-5.29.67.22,1,.33,1.39.46Q266.41,313,275,316.3a8.26,8.26,0,0,0,1.54.23l-2-3.45c-2.19-3.8-4.4-7.6-6.58-11.42-.9-1.59-.82-2,.44-3.34A2.24,2.24,0,0,0,268.73,297.63ZM293.88,276l.08.21a4.35,4.35,0,0,0,.86-.36,2,2,0,0,1,2.74,0c2.21,2.06,4.36,4.18,6.54,6.28l-.24.32a4.14,4.14,0,0,1-.56,0c-4.47-.6-8.93-1.21-13.4-1.8-.41-.05-1-.09-1.23.14-1.55,1.64-3,3.36-4.43,4.94a1.31,1.31,0,0,0,.53-.17,2.7,2.7,0,0,1,3.21.15c3.1,3.17,6.2,6.34,9.26,9.55,1.3,1.36,1.27,2,.26,3.57a2,2,0,0,0-.14.71c.23-.06.53-.06.68-.2,1.5-1.44,3-2.9,4.45-4.37.06-.06,0-.2.08-.48a3.28,3.28,0,0,0-.79.24c-1.56,1.05-2.25,1.05-3.55-.26-2.62-2.64-5.19-5.32-7.77-8-.23-.24-.43-.51-.74-.87,7.11.72,14,1.83,21,2.23a3.33,3.33,0,0,0-.74-1.08l-11.11-11.58a2,2,0,0,1-.25-2.88c.17-.22.14-.61.2-.92l-.34-.08ZM176.67,324a1.25,1.25,0,0,0-.31,0,.33.33,0,0,0-.17.16c-.42,1.27-1.2,1.08-2.16.63a12.06,12.06,0,0,0-2.8-1c-4.35-.83-8.13,2.94-7.07,7a7.23,7.23,0,0,0,3.51,4.21c1.45.91,3,1.63,4.4,2.64a4.88,4.88,0,0,1,1.87,2.44c.53,2.22-1.63,3.8-4.18,3.18-2.87-.69-4.38-2.71-5.1-5.45a9.67,9.67,0,0,0-.5-1.21l-.49.14v7.58c.14,0,.41,0,.49-.14.87-1.27,1.87-.82,3.05-.46a14.15,14.15,0,0,0,4.65.76,5.91,5.91,0,0,0,5.5-4.15,5.34,5.34,0,0,0-1.52-6,17.75,17.75,0,0,0-2.51-1.82c-1.68-1.07-3.42-2-5.06-3.16a2.19,2.19,0,0,1-.67-2.71,2.33,2.33,0,0,1,2.11-1.52,5.12,5.12,0,0,1,3.53.85,6.71,6.71,0,0,1,2.65,4.12c.06.23.37.39.57.58.11-.23.32-.45.32-.68,0-1.84,0-3.68,0-5.52A1.56,1.56,0,0,0,176.67,324Zm-73.95-5-.51,0c-1,2.13-2,4.25-2.94,6.4,0,.11.48.61.52.59,1.4-.92,2.24,0,3.07.9a7.63,7.63,0,0,0,6.86,2.63,5.68,5.68,0,0,0,4.53-8.2,42.08,42.08,0,0,0-2.5-3.78,30,30,0,0,1-2.53-4,2.08,2.08,0,0,1,2.06-3,4.91,4.91,0,0,1,2.56.77c2.09,1.41,2.51,3.55,2.24,5.92a4.94,4.94,0,0,0,.14,1.17l.39,0,2.67-6.11c-.31,0-.45-.09-.54,0-1.43.84-1.42.83-2.52-.48a7.92,7.92,0,0,0-4.39-2.74,5.74,5.74,0,0,0-7,5.63c.07,2.16,1.33,3.79,2.51,5.45a28.76,28.76,0,0,1,2.82,4.27,2.53,2.53,0,0,1-2,3.69,4.18,4.18,0,0,1-3.51-1.16,7.09,7.09,0,0,1-2-6.81A6.44,6.44,0,0,0,102.72,319ZM328.81,256.4a27.9,27.9,0,0,1-.05,4.93c-.51,2.83-3.08,5.91-7.07,4.85a13.81,13.81,0,0,1-8.66-6.11,5.79,5.79,0,0,1,.2-6.56,6.25,6.25,0,0,1,6.8-2.33,15,15,0,0,0,1.52.2l.11-.45c-1.75-1.23-3.5-2.46-5.27-3.66-.15-.1-.45,0-.74.06.8,1.65.7,2-.72,3a21.93,21.93,0,0,0-2.06,1.62,10.71,10.71,0,0,0,.48,16.22A9.78,9.78,0,0,0,327.2,267c2.27-2.49,3.6-5.3,3.1-8.81C330.14,257.1,329.45,256.78,328.81,256.4ZM128.64,321.91l.27.18a15.3,15.3,0,0,1,2.92-2.7c1.26-.67,2.71-.23,4,.4a1.8,1.8,0,0,1,0,.42c-1.44,5-2.87,10.05-4.34,15.07a1.57,1.57,0,0,1-2.07,1.13,7.65,7.65,0,0,0-1.35,0c.24.35.27.45.33.47,3.1.91,6.2,1.82,9.31,2.7.22.06.49-.09.9-.17-.26-.28-.32-.4-.42-.43-2.13-.85-2.26-1.09-1.64-3.28.9-3.19,1.8-6.38,2.71-9.56.48-1.67,1-3.32,1.6-5.37,1.36.85,2.82,1.33,3.58,2.34s.72,2.49,1,3.77h.35l1.53-5.26-17.22-4.95ZM320,238.31c.42.57.59.83.79,1.07q5.22,6.5,10.43,13c1,1.28,2.12,2.54,1.85,4.38,0,.13.2.29.44.61l3.05-6.09-.39-.26a10.3,10.3,0,0,0-.7.76c-.89,1.18-1.72,1.27-2.77.2-.61-.63-1.16-1.31-1.75-2,1-1.88,1.85-3.7,2.8-5.5a1.14,1.14,0,0,1,.77-.58,28.55,28.55,0,0,1,3.1.22c.93.1,1.21.66.92,1.54l-.43,1.28c.91-.28,4.19-6.27,4.92-8.77l-.83.36a5.12,5.12,0,0,1-1.81.7c-4.51-.14-9-.37-13.52-.58C324.74,238.55,322.56,238.43,320,238.31ZM155.42,321.86c-.41.49-.6.69-.76.91-3.15,4.47-6.28,9-9.45,13.42-1,1.41-1.89,3-3.92,3.23-.13,0-.24.32-.4.55.25.08.4.14.55.17,1.72.34,3.44.69,5.17,1a3.69,3.69,0,0,0,1-.08,3.59,3.59,0,0,0-.76-.69c-.65-.31-1.61-.52-1.34-1.39a9.62,9.62,0,0,1,1.66-3.09c.24-.3,1.22,0,1.85,0s1.1.21,1.65.3c3.35.53,3.35.53,4,3.85.27,1.4-.07,1.76-1.47,1.61a5.15,5.15,0,0,0-1,.08c0,.16,0,.32,0,.47l9.65,1.88c-.14-.45-.14-.68-.23-.72-1.53-.71-1.74-2.18-2.06-3.57-1.12-4.86-2.21-9.72-3.31-14.58C156,324.21,155.74,323.18,155.42,321.86Zm68.1,16.69-.18-.39h-1.18c-1.35,0-1.76-.31-1.78-1.61,0-.55.17-1.11.17-1.67a1.32,1.32,0,0,1,1.19-1.5c.9-.18,1.77-.49,2.65-.74,3-.85,3-.85,4.91,1.64.91,1.19.8,1.57-.6,2.19a3.77,3.77,0,0,0-.76.62l.25.33,9.39-2.75c-.28-.34-.36-.51-.43-.51-1.82.08-2.78-1.24-3.76-2.41-3.11-3.7-6.16-7.45-9.24-11.18-.72-.87-1.48-1.71-2.44-2.81-.26,1.67-.46,3-.66,4.32-.71,4.86-1.41,9.72-2.14,14.57a3.86,3.86,0,0,1-1.71,3.14c-.13.07-.1.42-.19.85C219.3,339.81,221.55,339.55,223.52,338.55ZM36.6,238.26c.1-.18.33-.41.28-.51-1.37-2.78-2.77-5.55-4.31-8.59-.27.55-.42.71-.39.81.42,1.27-.34,2.13-1,3s-1.5,1.86-2.27,2.78q-4.62,5.58-9.24,11.16a3.43,3.43,0,0,0-.38.92,3.77,3.77,0,0,0,1,.26c.76,0,1.51-.11,2.27-.15,4.74-.23,9.49-.48,14.23-.68,1.66-.07,3.38-.23,4.77,1.06.12.11.4,0,.83.05l-3-6-.42.12a5.1,5.1,0,0,0,.08,1c.46,1.63.21,2.13-1.47,2.4a32.58,32.58,0,0,1-3.46.27c-2.57.14-5.13.26-7.93.4.28-.37.39-.53.51-.67,2.17-2.61,4.36-5.2,6.52-7.82,1.61-2,1.85-2,3.18.06C36.34,238.16,36.44,238.18,36.6,238.26ZM130,316.91c-.26-.42-.29-.52-.34-.55-3-1.07-6.09-2.14-9.15-3.18-.2-.07-.48.06-.72.1a1.12,1.12,0,0,0,.58.61c1.62.73,1.82,1.1,1.25,2.76q-2.22,6.51-4.48,13c-.67,1.93-.84,2-2.89,1.68a.6.6,0,1,0,.28.84c2.64.92,5.27,1.83,7.92,2.72a3.62,3.62,0,0,0,1.05,0,3.56,3.56,0,0,0-.75-.68c-1.18-.56-1.52-1.1-1.13-2.25q2.38-7,4.83-14c.44-1.27,1-1.48,2.32-1.19A12.26,12.26,0,0,0,130,316.91Zm175.55-54a3.58,3.58,0,0,0-.85.55q-2.84,3.32-5.63,6.68a2.22,2.22,0,0,0-.24.8l.43.27a4.13,4.13,0,0,1,.49-.78,1.72,1.72,0,0,1,2.65-.13q5.27,4.43,10.52,8.88c1.9,1.62,1.88,1.7.49,3.81,0,0,0,.14,0,.23s.27.17.29.15q3.43-3.87,6.83-7.76l-.23-.38a3.85,3.85,0,0,0-.89.47c-1.07,1-1.57,1.09-2.69.18-3.36-2.76-6.69-5.56-10-8.35C304.42,265.64,304.42,265.64,305.54,262.93ZM19.31,222.75a2.59,2.59,0,0,0-2.61,2.35A2.86,2.86,0,0,0,19.4,228c1,0,2.41-1.59,2.4-2.83A2.38,2.38,0,0,0,19.31,222.75Zm320,8.15c1.57,0,3-1.19,3-2.45a2.48,2.48,0,0,0-2.72-2.34A2.71,2.71,0,0,0,337,228.9,2.36,2.36,0,0,0,339.26,230.9ZM188.36,331.26a3.49,3.49,0,0,0-2.74,3,3.65,3.65,0,0,0,2.33,2.15,2.6,2.6,0,1,0,.41-5.18Z"/><path class="cls-9" d="M358.51,176.6c-.13,1.48-.28,3.42-.47,5.35a59.15,59.15,0,0,1-.68,6.07c-1.57,7.69-3.18,15.38-4.92,23-.61,2.71-1.65,5.32-2.48,8-.36,1.15-1.22.69-1.85.49-1.29-.4-2.54-1-3.81-1.43-6.92-2.54-13.84-5.1-20.78-7.59a7.08,7.08,0,0,0-5.81.25c-1.73.87-2.56,3.71-1.87,5.4.11.26.32.51.32.77,0,.6.05,1.62-.2,1.71a3.16,3.16,0,0,1-2-.11,1.16,1.16,0,0,1-.64-1.68c1.09-3,2-6.05,3.24-9a102.44,102.44,0,0,0,4.83-16.74,119.79,119.79,0,0,0,2.42-17.52c0-.27.1-.54.23-1.21,1.1,1.28,2.11,2.27,2.89,3.41a58.45,58.45,0,0,1,9,21.48,5.59,5.59,0,0,0,1.86,3.15c4.9-2.56,8.61-6.48,11.85-10.79S355.72,180.73,358.51,176.6Z"/><path class="cls-9" d="M36.22,172.2c0,1.68,0,3.35,0,5a77.76,77.76,0,0,0,3.49,20.6c1.44,4.72,3.4,9.28,5,13.94a28.47,28.47,0,0,1,1.1,4.61,1.11,1.11,0,0,1-1.23,1.4,1.36,1.36,0,0,1-1.46-1.55c.12-1.23.47-2.43.54-3.66.15-2.55-.87-3.83-3.38-4.16a6.73,6.73,0,0,0-2.9.18c-4.58,1.52-9.11,3.17-13.67,4.75-1.87.65-3.77,1.23-5.64,1.87-2.54.87-5.08,1.77-7.9,2.75a19.9,19.9,0,0,1-1.3-2.54A88.78,88.78,0,0,1,4.8,199.2c-.67-4.37-1.41-8.74-2-13.12-.48-3.55-.8-7.12-1-10.72,1.7,2.68,3.34,5.39,5.1,8a67.46,67.46,0,0,0,14.48,15.82c.45.35,1.33.81,1.58.63a2.91,2.91,0,0,0,1-1.76,49.6,49.6,0,0,1,3.85-13.21,63.65,63.65,0,0,1,7-12,7,7,0,0,1,1.11-1Z"/><path class="cls-10" d="M319.46,221.47c-.35-.12-.54-.18-.72-.26l-1.71-.73c.29-.49.8-1,.83-1.47a12.1,12.1,0,0,0-.27-3.1,3.2,3.2,0,0,1,1.61-3.55c1.22-.6,1.94.34,2.76.88s.47,1.21.18,1.9c-.61,1.47-1.14,3-1.74,4.45C320.15,220.21,319.8,220.8,319.46,221.47Z"/><path class="cls-10" d="M42.17,212.77c-.24.5-.46,1-.75,1.53a2.73,2.73,0,0,0,.12,3.44,1.17,1.17,0,0,1-.2,1.13c-.4.2-1.32.26-1.4.09a48,48,0,0,1-2.26-5.76c-.33-1.11.58-2.09,1.86-2.55a1.68,1.68,0,0,1,2.14.81A6.19,6.19,0,0,1,42.17,212.77Z"/><path class="cls-11" d="M222.35,165.82c-.31,0-.59,0-.87,0-1.84,0-2.07-.26-1.56-2s.13-2.32-1.61-2.43a18.15,18.15,0,0,0-3.58.13c-.35,0-.76.62-.9,1a5,5,0,0,0,0,1.55,1.62,1.62,0,0,1-2.23,1.69,1.31,1.31,0,0,1-.57-1,17.21,17.21,0,0,1,.21-2.38c.07-.6-.15-.9-.79-.9a43.15,43.15,0,0,0-4.79.05c-.43,0-1,1-1.06,1.57a49.65,49.65,0,0,0,0,6.23c0,.56.77,1,1.11,1.61a3.65,3.65,0,0,1,.73,1.64c0,5.43-.17,10.86-.27,16.29,0,.32-.1.63-.11.95,0,.89-.44,1.31-1.37,1.19a7.94,7.94,0,0,0-1.32,0,1.68,1.68,0,0,0-1.72,1.73c0,1.76,0,3.52,0,5.28,0,.72-.22,1-1,1-1.72,0-3.44,0-5.16,0-.76,0-1.13-.28-1.18-1-.06-1-.1-1.91-.15-2.86,0-.12,0-.24,0-.36.15-3.9,0-3.71-3.49-4.06-.32,0-.63,0-1.05-.06a6.08,6.08,0,0,1-.13-.91c.06-5.68.11-11.35.23-17a2.4,2.4,0,0,1,.69-1.56,4.57,4.57,0,0,0,1.53-3.93c-.08-1.43.14-2.87.2-4.31a1.82,1.82,0,0,0-2.11-1.62,4.82,4.82,0,0,1-1.87-.08c-1.6-.35-1.94-.12-2,1.49,0,.51-.21,1-.23,1.53a8.93,8.93,0,0,0,.16,1.39c-3.07.69-3.1.67-2.81-2.37.19-2,0-2.2-2.1-2.19-.88,0-1.76,0-2.64,0s-1.28.31-1.24,1.2,0,1.52,0,2.28c0,1.29-.19,1.35-2,1.29-1.07,0-1.19-.74-1.24-1.54a.81.81,0,0,1,0-.24c.81-3,.33-2.57-2.19-2.63-1.16,0-2.31,0-3.64,0-.07,1.26-.19,2.43-.2,3.62s.18,2.48.07,3.71a1.75,1.75,0,0,0,.72,1.61,2.26,2.26,0,0,1,.79,1.33c.06,6.23.05,12.46.05,18.69a2.38,2.38,0,0,1-.14.44h-2.39c-1.43,0-2,.51-2,2s.07,3.2.1,4.79c0,.39,0,.78,0,1.34-2.5,0-4.89,0-7.27,0-.23,0-.63-.62-.65-1-.1-1.83-.18-3.68-.11-5.51,0-1.23-.66-1.58-1.59-1.84a1.69,1.69,0,0,0-.36,0c-2.63-.15-2.69-.15-2.67-2.78q.05-7.8.24-15.59a1.75,1.75,0,0,1,.66-1.24,4.18,4.18,0,0,0,2-4.42,28.76,28.76,0,0,1,0-4.32c0-.73-.24-1-1-1-1.52,0-3,0-4.56,0-.73,0-1,.28-1,1,0,1,0,1.91,0,2.95h-2.95v-3.87h-6.7v4.38h-2.35V161.3c-2,0-3.95,0-5.85,0-.24,0-.65.56-.66.87-.07,2.08-.1,4.16,0,6.24a2.67,2.67,0,0,0,.78,1.65,4.85,4.85,0,0,1,1.45,3.85c0,5,.07,10.08.18,15.11,0,1.11-.23,1.6-1.45,1.53a24.14,24.14,0,0,0-3.2.22c-.12,1.28-.29,2.49-.35,3.71-.13,3-.15,5.92-.33,8.87a3.48,3.48,0,0,0,1.47,3.2,3,3,0,0,1,1.2,2.75c-.11,10.6,0,21.19-.26,31.79-.1,5-.71,10-1.14,14.92a23.87,23.87,0,0,1-.62,4.11c-.51,1.93-1.25,3.8-1.85,5.71-.36,1.13-.63,2.29-1,3.42a2,2,0,0,1-.63,1,17.26,17.26,0,0,1-2.7,1.47,1.55,1.55,0,0,1-1.3-.14c-3.45-2.59-6.86-5.22-10.27-7.86a23.91,23.91,0,0,1-2.24-1.95c-4.83-4.82-9.79-9.51-14.41-14.52a96.29,96.29,0,0,1-12.19-16.64c-4.21-7.17-8.35-14.4-12-21.85-2.48-5-4.18-10.42-6.14-15.68-.62-1.66-.93-3.44-1.44-5.15-.25-.82-.73-1.58-.94-2.41-1.25-4.87-2.83-9.65-3.46-14.68-.6-4.78-1.51-9.52-2.05-14.31s-.95-9.31-1.11-14c-.35-9.79-.62-19.58-.71-29.37-.08-8.6.14-17.19.22-25.79.12-12.64.27-25.27.32-37.9,0-10.88-.07-21.75-.08-32.63,0-3.84.11-7.68.06-11.51,0-1.22.33-1.58,1.55-1.57Q70,4,84.2,4q90.12.06,180.23.09l43.56,0h1.56V8.89c0,9.2,0,18.4,0,27.6q-.08,19.62-.25,39.23c-.14,19.11-.2,38.23-.51,57.34-.11,6.86-.74,13.72-1.31,20.56-.31,3.73-.9,7.44-1.51,11.13-.44,2.66-1.07,5.29-1.71,7.92-.71,2.87-1.67,5.69-2.29,8.58a82.73,82.73,0,0,1-5.06,15.17c-2.51,5.9-5.12,11.76-8,17.49a125.38,125.38,0,0,1-12.21,19.92c-4,5.26-8.15,10.39-12.44,15.4a130.7,130.7,0,0,1-17.78,16.7c-2.7,2.16-5.51,4.17-8.31,6.21a1.47,1.47,0,0,1-1.19.15c-1.1-.41-2.16-.95-3.24-1.42a2.56,2.56,0,0,1-1.7-2.08c-.41-2.18-1.15-4.3-1.65-6.47-.93-4.08-2.34-8-2.29-12.36.13-11.07,0-22.15-.08-33.23,0-2.64.06-5.28.18-7.91a2.3,2.3,0,0,1,.77-1.25c1.1-1.11,2.32-2,2.21-3.94-.19-3.43-.08-6.88-.1-10.32,0-1.53-.57-2.1-2.07-2.09h-2.14c0-1.74,0-3.37,0-5-.09-4.46-.91-8.93.37-13.35a3.28,3.28,0,0,1,.22-.8c1.61-2.64,1.16-5.55,1.1-8.4,0-2.15-.3-2.29-2.47-2.22-.71,0-1.43-.11-2.15-.15-1,0-1.52.33-1.48,1.4s0,1.84,0,2.76C222.47,165.56,222.42,165.63,222.35,165.82Zm32.73-20.08v-1.32q0-48.71,0-97.42c0-1,.05-2,0-3a1.09,1.09,0,0,0-.71-.78,58.58,58.58,0,0,0-5.87-.09c-1.7.09-3.11,0-4-1.79-.56-1.14-1.08-1.18-2.14-.33a9,9,0,0,1-6.2,2.22c-6.31-.16-12.63,0-18.94-.07a6.37,6.37,0,0,1-1.88-.28c-2.07-.66-4.09-1.44-6.17-2.06a24.22,24.22,0,0,0-12.54-.14,27.94,27.94,0,0,0-13.82,8.16c-.37.38-.72.77-1.18,1.26-.44-.5-.74-.87-1.07-1.21a27,27,0,0,0-13.13-8,31.11,31.11,0,0,0-15.84.46,31.15,31.15,0,0,1-4.25,1.12c-2,.24-4,.19-6,.24-5.32.11-10.63.15-15.95.34A8.63,8.63,0,0,1,120,41.73c-1.87-1.24-2.49-1-4.17.54a3.21,3.21,0,0,1-1.89.74c-2.28.09-4.56.06-6.84,0-1.1,0-1.48.34-1.48,1.52q0,38.21,0,76.43c0,7.88,0,15.76,0,23.64,0,.92.21,1.29,1.2,1.25,1.68-.07,3.36,0,5,0h60.35c.68,0,1.29,0,1.71.74,2.76,5.07,10.8,5.19,14,.17a2,2,0,0,1,2-1q21.84,0,43.67,0Z"/><path class="cls-12" d="M236,273.92c-3.08,2.16-6.18,4.53-9.46,6.61A170.82,170.82,0,0,1,199.91,294c-2.24.92-4.47,1.88-6.76,2.65-1.61.55-3.34.73-5,1.23-3.18,1-6.33,2.06-9.5,3.09a1.23,1.23,0,0,1-.76,0c-6.52-2.46-13.09-4.8-19.53-7.44-4.13-1.7-8.11-3.78-12.1-5.8s-7.87-4-11.63-6.24c-4-2.44-7.9-5.21-12.14-8,1.17-.58,2.05-1,2.91-1.45,1.36-.72,2.68-1.52,4.05-2.21,1.13-.57,2.32-1,3.46-1.56,3.71-1.84,7.44-3.64,11.09-5.58a14.76,14.76,0,0,1,11.23-1.22,10.75,10.75,0,0,1,6.3,4.48c-1.39,1.06-2.73,2.11-4.09,3.13-1.76,1.3-3.54,2.57-5.31,3.86a1.55,1.55,0,0,0-.52.48,4.8,4.8,0,0,0-.24,1c.36,0,.8.19,1.06,0a29.07,29.07,0,0,0,2.69-1.76c5.1-3.68,10.15-7.42,15.29-11a18,18,0,0,1,4.7-2.49,11.43,11.43,0,0,1,4.55-.37c5.43.55,9.86,3.37,14.08,6.58,3.79,2.89,7.56,5.81,11.35,8.7.47.36,1.06.58,1.49,1,.72.64,1.3.22,1.76-.25.1-.1-.31-.94-.67-1.19-3.07-2.2-6.2-4.32-9.28-6.52-1.26-.9-1.25-1.76.07-2.55a23.45,23.45,0,0,1,5.38-2.8,13,13,0,0,1,5.32-.07c5.78.88,10.7,3.89,15.73,6.63C228.51,270.14,232.18,271.94,236,273.92Z"/><path class="cls-7" d="M150.78,259.37c-4.48.51-8.3,2.47-12.17,4.34q-5.06,2.45-10.16,4.85a3.17,3.17,0,0,1-1,.12,5.79,5.79,0,0,1,.07-.88c.51-2.15,1-4.31,1.58-6.43.51-1.76,1.23-3.45,1.83-5.18a2.67,2.67,0,0,0,.06-.83q.2-21.78.4-43.55c0-1.08,0-2.15,0-3.4,31.49-1.1,63-.17,94.58-.09.1,1.16.26,2.26.27,3.36.06,10.48.16,21,.1,31.43a70.31,70.31,0,0,0,.89,13.61c.42,2.2,1.09,4.35,1.69,6.51.45,1.63,1,3.24,1.4,4.88.09.35-.15.79-.23,1.19-.32-.17-.66-.32-1-.51s-.34-.33-.55-.43c-5.12-2.5-10.23-5-15.38-7.46a10.64,10.64,0,0,0-2.66-.54c-1.85-.33-2-.43-1.95-2.29q0-19,.09-37.92c0-.8-.11-1.6,0-2.4.08-1-.31-1.25-1.22-1.29a14.77,14.77,0,0,0-8,2.15c-1,.56-1.45.43-2.14-.46a36.75,36.75,0,0,0-3.85-4.2c-1-1-1.27-.83-1.91.41-.53,1-1.07,1.24-2.13.63s-2-1.29-3-1.91a14.89,14.89,0,0,0,.43-2.22,1.11,1.11,0,0,0-.63-.86,27.06,27.06,0,0,0-12.33-.1c-.79.19-1,.7-.65,1.44.71,1.58.71,1.58-.83,2.46-.24.14-.47.31-.72.43-1.4.66-1.6.6-2.35-.79s-.93-1.32-2.05-.42a21.3,21.3,0,0,0-1.9,1.45,34.28,34.28,0,0,0-3.08,3.44c-.73,1-1.51,1.27-2.53.6-2.3-1.51-4.94-1.89-7.58-2.23-1-.13-1,.5-1,1.27,0,9.72,0,19.44,0,29.16,0,3.8-.18,7.6-.29,11.39C150.89,258.51,150.82,258.9,150.78,259.37Z"/><path class="cls-7" d="M185,192.7c1.47,0,2.77,0,4.08,0a15.57,15.57,0,0,0,1.79-.09c1.3-.16,1.91.33,1.92,1.67,0,1.68,0,3.36-.07,5,0,1,.38,1.46,1.37,1.46h5.63c.56,0,1.12-.06,1.68,0,1.55.06,2.12-.43,2.08-2,0-1.32-.14-2.63-.3-3.94s.39-2,1.73-2h4.92c1.27,0,1.91.59,1.86,1.87-.05,1.48-.21,2.95-.3,4.42a1.86,1.86,0,0,0,1.86,2.1c2.44,0,4.88,0,7.32,0,1.25,0,1.31-1.15,1.36-2,.09-1.55,0-3.12,0-4.68,0-1.17.56-1.79,1.74-1.75,1.87.07,3.74.22,5.7.34v10.88c-2.2.11-4.41.29-6.63.32q-7.74.1-15.47.09-32.69,0-65.38-.12c-3.84,0-7.68-.12-11.51-.19-.27,0-.54,0-1-.08V192.22c2.48,0,4.91,0,7.34,0,.23,0,.61.51.63.8.11,1.71.14,3.43.2,5.14.07,1.94.6,2.46,2.5,2.45l6.12,0a1.49,1.49,0,0,0,1.69-1.66c0-1.56.05-3.12,0-4.68a1.52,1.52,0,0,1,1.61-1.78c2.15-.1,4.3,0,6.45,0,0,2.23,0,4.4,0,6.57,0,.71.08,1.08.82,1.11l8,.32c.31,0,.71.22.92.09.5-.32,1.29-.77,1.29-1.18,0-2.18-.15-4.36-.27-6.71.66-.07,1.23-.16,1.81-.2,1.59-.09,3.19-.15,4.78-.22a1.73,1.73,0,0,1,1.7,1.61,36.36,36.36,0,0,1-.24,5c-.21,1.32.62,1.67,1.41,1.7,2.95.11,5.9,0,8.94,0C185,198,185,195.57,185,192.7Z"/><path class="cls-13" d="M192.68,262.86c-2.21-1.42-4.55-2.73-6.65-4.35a4.9,4.9,0,0,1-1.64-3c-.35-2.89-.38-5.82-.46-8.73,0-.31.51-.92.77-.92,1.41,0,2.82.2,4.23.34.11,0,.22.11.33.13,2.92.51,2.93.37,3-2.15,0-2,0-4.07,0-6.05-1.86-1.44-3.66-.2-5.45-.07-.43,0-.85.23-1.28.28-1.78.21-2.25-.18-2.4-2-.09-1,.3-1.51,1.34-1.43,1.3.11,2.6.35,3.9.52.93.12,1.28-.28,1.24-1.23-.07-1.92,0-3.84-.09-5.76-.07-1.47-.38-1.6-1.74-1.23-1.12.3-2.28.46-3.42.69-.87-2.29-.26-4.23.29-6.18.39-1.38.31-1.46-1.12-1.45-2.79,0-5.58,0-8.79,0,.23,1.17.4,1.93.53,2.68.23,1.33.47,2.66.61,4,0,.22-.44.72-.66.7-1.24-.09-2.47-.27-3.7-.47-1.54-.25-1.77-.08-1.79,1.43,0,1.8,0,3.61-.13,5.39-.1,1,.36,1.2,1.12,1.17,1.19-.06,2.38-.21,3.58-.26s1.73.6,1.64,2.12c-.06,1.05-.74,1.57-1.86,1.37q-2.46-.44-4.92-.93c-1.21-.24-1.58.06-1.62,1.3-.07,2.16-.19,4.31-.24,6.47,0,1.64.56,1.84,2.11,1.44a23.37,23.37,0,0,1,5.07-.54c1,0,1.49.63,1.45,1.66-.12,3.18-.22,6.36-.34,9.61-3.74.36-6,3.13-9.06,4.77a10.33,10.33,0,0,1-.16-1.18c0-10.48,0-21,.19-31.43a10.34,10.34,0,0,1,5.87-9.42,21.92,21.92,0,0,1,4-2,12,12,0,0,1,10.32,1.73c3,2,4.49,4.85,5.77,8a2.83,2.83,0,0,1,.17,1.05q0,16.92,0,33.84C192.69,262.9,192.65,263,192.68,262.86Z"/><path class="cls-14" d="M194.08,255.56a19.89,19.89,0,0,0,9.79-1.9,14.4,14.4,0,0,0,1.5-.92l.07-.4a20.29,20.29,0,0,1-2.48-1c-2.4-1.4-5.08-1.43-7.72-1.71-1.08-.12-1.43-.7-1.37-1.78.17-3.11.25-6.22.37-9.57,4,.31,7.92-.15,11.73-2.71-1.33-.57-2.42-1-3.51-1.49-.25-.1-.58-.09-.8-.23a9.31,9.31,0,0,0-6.18-1.21c-.9.07-1.35-.39-1.27-1.17.3-3.1.65-6.23,3-8.62,2.71-2.77,5.73-5,10-4.6v41.47c-4.37,0-7.54,2.45-10.66,5-1.14.92-2.35.43-2.43-1.09C194,260.94,194.08,258.35,194.08,255.56Z"/><path class="cls-14" d="M152.93,235c.38,1.41,1.51,1.45,2.4,1.82.21.09.53,0,.7.14,2,1.57,4.3,1.07,6.52,1.09,1.87,0,2.3.41,2.31,2.32,0,2.48,0,5,0,7.44,0,1.1-1,2.25-2,2-2.75-.82-5.13.35-7.6,1.11-.42.13-.82.31-1.23.46-.8.29-1.17.79-1,1.35,1.86.84,3.46,1.71,5.16,2.28a10.06,10.06,0,0,0,3.08.2c3.32,0,3.35,0,3.35,3.28a48,48,0,0,1-.25,5,1.63,1.63,0,0,1-1,1.08,1.5,1.5,0,0,1-1.23-.45c-2.71-2.84-6.13-4.15-10.05-4.73,0-.38-.06-.8-.06-1.23,0-12.79.06-25.59,0-38.38,0-1.13.49-1.64,1.44-1.52a15.85,15.85,0,0,1,4.14.95c4.28,1.81,7.71,6.44,7.18,11.45-.17,1.63-.42,2-2,1.88a19.21,19.21,0,0,0-8.36,1.53A9.94,9.94,0,0,0,152.93,235Z"/><path class="cls-10" d="M183.52,257.15l-6.32-.5c0-1.67,0-3.41,0-5.16,0-2,.07-4,.16-6,0-.77-.33-1-1-1-2.15.12-4.3.16-6.44.4-.9.1-1.21-.18-1.22-.94,0-1.58,0-3.17,0-4.79,2,.1,4.15.25,6.29.28,1.93,0,2.12-.2,2.15-2.13,0-1.12,0-2.24-.07-3.36a2.27,2.27,0,0,0-.13-.53c-1.47,0-2.9-.07-4.32,0-1,.07-1.26-.4-1.26-1.25a18,18,0,0,0-.08-1.91c-.12-1.09.29-1.57,1.37-1.47.87.08,1.74.27,2.61.31a1.59,1.59,0,0,0,1.84-1.88c-.13-1.78-.31-3.56-.48-5.44h6.2c-.18,1.58-.3,3.11-.54,4.61-.39,2.48-.38,2.51,2.08,2.5,1.22,0,2.83-.34,3.55.29s.22,2.24.25,3.43c0,.31,0,.62-.06,1-1,0-2-.14-3-.13s-1.89.15-2.9.23c-.09,1.59-.22,3.06-.22,4.52,0,1,.37,1.66,1.61,1.49s2.47-.11,3.69-.27,2.32-.47,3.6-.74v6.14c-.69-.08-1.38-.2-2.06-.23-1.78-.08-3.57-.13-5.35-.19-.75,0-.9.4-.89,1.07C182.63,249.3,182.32,253.07,183.52,257.15Z"/><path class="cls-7" d="M175.87,199.45c0-2.35,0-4.46,0-6.57,0-1.36-.59-2-2-2-.83,0-1.67,0-2.75,0,0-2.16,0-4.26,0-6.35.05-3.6.13-7.19.21-10.79a1.92,1.92,0,0,1,2.18-2.15c2.88,0,5.75.11,8.63.17l4.44.08c1.14,0,1.84.57,1.83,1.69,0,5.51-.14,11-.2,16.54,0,.75-.42.93-1.07,1-3.09.2-3.07.21-3.12,3.32,0,1.28-.14,2.55-.2,3.83,0,.74-.26,1.1-1.15,1.09C180.48,199.24,178.28,199.37,175.87,199.45Zm-.11-16.51a26,26,0,0,0,.05,3.88c.1.64.7,1.66,1.14,1.7a49.51,49.51,0,0,0,6.08,0c.19,0,.53-.58.52-.89q-.15-5.14-.42-10.27c0-.52-.16-1.29-.52-1.51-1.24-.75-2.55-1.64-4.1-1a3.55,3.55,0,0,0-2.32,3.16C176.05,179.78,175.87,181.57,175.75,182.94Z"/><path class="cls-7" d="M134.28,190.81c0-5.6-.1-11,0-16.46.08-2.84.28-2.8,3.19-2.82,4.15,0,8.31-.1,12.46-.18,1,0,1.51.46,1.51,1.53q0,8,0,15.95c0,1.91-.49,2.32-2.43,2.15s-2.51.32-2.56,2.24,0,3.9,0,6c-2.32,0-4.6,0-6.86,0-.29,0-.76-.64-.81-1-.17-1.51-.19-3-.27-4.54,0-.2,0-.4,0-.6-.1-2.23-.1-2.23-2.3-2.23Zm12.28-2.72c0-2.72,0-5.27,0-7.82,0-.64-.06-1.28,0-1.92a3.58,3.58,0,0,0-1.62-3.1,3.28,3.28,0,0,0-3.55-.6,3.6,3.6,0,0,0-2.42,3.26c0,2.8-.13,5.59-.28,8.38a1.73,1.73,0,0,0,1.83,2.07c1.44,0,2.88,0,4.32,0A13.57,13.57,0,0,0,146.56,188.09Z"/><path class="cls-7" d="M220.36,191.21v8.51c-2.36,0-4.54,0-6.72,0-.26,0-.69-.53-.73-.84-.15-1.55-.23-3.1-.28-4.66-.08-2.87-.06-2.87-2.89-2.86h-1.33c-.1-2.1-.28-4.13-.29-6.15,0-3.84.1-7.67.12-11.51a1.44,1.44,0,0,1,1.47-1.56c5-.07,10.06,0,15.2,0,1,6.29.05,12.66.21,19.15Zm-.33-2.34a5.41,5.41,0,0,0,.25-1.09c0-3.39.13-6.77,0-10.16-.05-1.7-2.62-3.29-4.29-2.92a3.85,3.85,0,0,0-3,2.85,13.77,13.77,0,0,0-.39,3.4c-.05,2.62,0,5.24,0,7.92Z"/><path class="cls-2" d="M228.23,205.66A2.33,2.33,0,0,1,226,207c-4.2,0-8.4.1-12.6.1-19.51,0-39,0-58.53-.09-7.67,0-15.34-.41-23-.67a7.14,7.14,0,0,1-1.61-.44l.1-.6C162.92,205.09,195.5,205.39,228.23,205.66Z"/><path class="cls-7" d="M144.6,162.73v3.75h6v-3.74h3.22v5.42H132.16v-5.4h3.45l.18,3.71h5v-3.75Z"/><path class="cls-7" d="M169.49,168.35c0-.41-.06-.6-.06-.79,0-1.56,0-3.11,0-4.82,1.08,0,2.11,0,3.12,0,.21,0,.51.55.53.85.07,1.07,0,2.15,0,3.46,1.59-.08,3.12-.15,4.65-.25.63,0,.9-.42.82-1.06a4.43,4.43,0,0,1,0-.6c0-1.94,0-1.87,1.94-2,1-.07,1.13.35,1.17,1.15.13,2.43.15,2.43,2.57,2.47h.12c.9-.05,2.07.21,2.63-.25s.24-1.65.46-2.49a1.33,1.33,0,0,1,.82-.83,15.72,15.72,0,0,1,2.4-.14v5.26Z"/><path class="cls-2" d="M223.9,163.54c.28-.1.46-.18.65-.24,2.13-.63,2.64-.26,2.65,1.9,0,.95,0,1.9,0,3-1.31.11-2.53.28-3.76.3q-7.25.14-14.5.2a11.23,11.23,0,0,1-2.37-.22,1.05,1.05,0,0,1-.64-.75,21.4,21.4,0,0,1,0-3.47c0-.37.55-.72.91-1,.15-.12.46,0,.7,0,1.73,0,1.73,0,1.76,1.66.05,2.66.05,2.66,2.69,2.66.48,0,1,0,1.44,0A1.47,1.47,0,0,0,215.1,166c0-.36,0-.72,0-1.08a1.75,1.75,0,0,1,2.58-1.71c.29.13.36.79.47,1.23a8.21,8.21,0,0,0,.63,2.44,2.53,2.53,0,0,0,1.85.69c3,0,3.37.52,3.28-3.24C223.9,164.1,223.9,163.86,223.9,163.54Z"/><path class="cls-7" d="M185.38,211.1,184,216.21h-4.58a9.71,9.71,0,0,0-1.31.06c-1.85.26-1.84.27-2.35-1.58a12.92,12.92,0,0,0-.64-1.66c-.5-1.15,0-2,1.24-2.08,1.55-.06,3.1-.24,4.65-.23S183.78,211,185.38,211.1Z"/><path class="cls-7" d="M171.29,218.81a15.72,15.72,0,0,0-5.21,7.1c-.39-.62-.57-.93-.78-1.24-.82-1.2-1.74-2.35-2.44-3.62a2.06,2.06,0,0,1-.07-1.84c1.36-1.49,2.88-2.82,4.36-4.2a1,1,0,0,1,1.6.19C169.58,216.37,170.4,217.54,171.29,218.81Z"/><path class="cls-7" d="M193.48,225.68c-1.1-2.32-2.28-4.65-4.43-6.14l2.21-3.28c.8-1.19,1.31-1.38,2.24-.4a30.83,30.83,0,0,1,3.28,4.21c.2.3-.17,1.11-.46,1.56C195.46,222.95,194.52,224.21,193.48,225.68Z"/><path class="cls-2" d="M155.39,252.51a13.87,13.87,0,0,1,8.3-1.72c1.08.09,1.14,1.28,1.2,2.19s-.58,1.1-1.35,1c-2.05-.22-4.11-.4-6.16-.68A9.61,9.61,0,0,1,155.39,252.51Z"/><path class="cls-2" d="M164.41,233.91c.17.33.35.64.49,1a1.28,1.28,0,0,1-1,1.84c-2.34.11-4.71.41-6.94-.61a9.89,9.89,0,0,1-1.27-.88C158.6,233.76,161.48,234.06,164.41,233.91Z"/><path class="cls-2" d="M194.24,253.81a6.86,6.86,0,0,1-.22-.9c-.21-1.72.17-2.22,1.87-2.08a46.44,46.44,0,0,1,5.19.76,5.85,5.85,0,0,1,1.62,1A21,21,0,0,1,194.24,253.81Z"/><path class="cls-2" d="M153.69,169.62a6.48,6.48,0,0,1-1.7.49q-8.81.07-17.63,0a8.31,8.31,0,0,1-2-.5l.07-.32h21.12Z"/><path class="cls-2" d="M169.22,169.26h21.09l.13.27a5,5,0,0,1-1.56.57q-8.93.08-17.87,0a7.05,7.05,0,0,1-1.86-.54Z"/><path class="cls-2" d="M202.87,235.36a14.33,14.33,0,0,1-7.84,1.47c-.15,0-.41-.07-.42-.14a10.53,10.53,0,0,1-.31-2.19c0-.16.7-.4,1.1-.45a16.4,16.4,0,0,1,6.21.61A5.65,5.65,0,0,1,202.87,235.36Z"/><path class="cls-2" d="M207.44,170.06h18.38v.26H207.45Z"/><path class="cls-2" d="M187.73,218.43c-1,0-2.57-1.18-2.52-1.93s.45-1.83,1.32-1.59a5.46,5.46,0,0,1,2.51,1.82A1.48,1.48,0,0,1,187.73,218.43Z"/><path class="cls-2" d="M174.9,217c-.33.18-.71.41-1.1.58-1.33.6-2.2.13-2.32-1.32,0-.22.59-.71.62-.69.82.62,1.81-1.78,2.51.13A10.71,10.71,0,0,1,174.9,217Z"/><path class="cls-1" d="M61.19,273.37c.32,0,.77-.08.93.09,2.06,2.17,4.09,4.38,6,6.45a1,1,0,0,1-.5-.18c-1.36-1.05-1.77-1-2.4.68q-1.84,4.75-3.65,9.5c-.14.36-.24.73-.45,1.39,1.51-.6,2.79-1.09,4.06-1.61,2-.79,3.92-1.59,5.87-2.4s2.25-1.66.89-3.39a2.93,2.93,0,0,1-.21-.39,2,2,0,0,1,.62-.17c.13,0,.24.19.36.3C78,288,83.15,292.39,88.54,296.55c2.21,1.71,4.93,2.76,7.33,4.26a43.71,43.71,0,0,1,6,4.27,4.57,4.57,0,0,1,.89,5.51,4.86,4.86,0,0,1-5.19,2.84l-1.35-.14c.85,3.83,0,7.83,2,11.58a3.84,3.84,0,0,1-.86-.22c-1.42-.81-2.86-1.61-4.24-2.49a1.7,1.7,0,0,1-.7-1.09c-.3-2.9-.51-5.81-.81-8.71-.07-.74.09-1.69-1.23-2-1.11,2-2.3,4.07-3.33,6.21-.17.35.37,1.09.68,1.6a4,4,0,0,0,.87.77l-.3.44-8.79-5,.08-.37a3.29,3.29,0,0,1,1,.13,1.63,1.63,0,0,0,2.42-.72c2.47-4.29,5-8.57,7.42-12.88.7-1.24.24-2-1.63-2.85l-3.39,4.11-.36-.14a5.11,5.11,0,0,1,.18-1.08c1.09-2.77.67-4.36-1.67-6.18-.72-.56-1.41-1.17-2.2-1.84l-4.83,5.94c1.12,1.51,2.78,1.64,4.5.37.38-.28.68-.67,1.06-1,.14-.11.41-.06.61-.09,0,.21.07.48,0,.61q-3,3.62-6,7.2c-.16.19-.51.22-1,.43,1.92-3.61,1.87-4.87-.2-6.32-1.41,1.76-2.83,3.52-4.23,5.31-.6.77-.25,1.42.39,2,2.58,2.27,5.42,3.88,9.29,1.32a1.38,1.38,0,0,1,.45-.1c-.05.79-2.36,3.19-4.48,4.67L63.78,302.16l.31-.45c.3.17.61.32.89.5a1.64,1.64,0,0,0,2.52-.31q4.64-5.72,9.23-11.49c1-1.24.68-2-.81-2.5s-3.08.08-4.51.64c-5.13,2-10.24,4.07-15.37,6.1a4,4,0,0,1-1.08.11,4.12,4.12,0,0,1,.12-1q3.18-8.53,6.39-17a3.11,3.11,0,0,0-.26-3.37Zm34.13,28.56-4.22,7.31c1.78.91,3.34,2.29,5.33,1.18A5,5,0,0,0,99,305.86C99,303.65,97,302.88,95.32,301.93Z"/><path class="cls-1" d="M61.2,273.35a2,2,0,0,1-.59-.29c-1.34-1.35-1.9-1.4-3.35-.2-1.69,1.4-3.35,2.85-5,4.26s-3.42,2.89-5.16,4.29-1.84,2.05-.46,4.1c-.27-.07-.64-.06-.79-.23q-3-3.5-6-7.06a2.05,2.05,0,0,1-.21-.68c.25,0,.35,0,.39,0,1.88,1.6,2,1.65,3.93.09q5.27-4.35,10.47-8.78c1.14-1,1.07-2.06-.09-3-2-1.61-2.09-1.63-4.14-.22-4.21,2.91-8.39,5.85-12.59,8.77a2.56,2.56,0,0,1-1.08.46c1.46-6.82,3.64-13.43,5.46-20.4l-8.65,6-1,.7c-1.93,1.44-2,1.71-1.21,4a2,2,0,0,1,0,.58c-1.06-.51-4.19-5.15-4.06-5.94.07,0,.17,0,.21,0,1.86,1.71,2.3,1.75,4.42.27,3.28-2.28,6.55-4.58,9.82-6.87a2.7,2.7,0,0,0,1.26-3.47,5.73,5.73,0,0,1-.1-.91l.36-.14c1.3,1.88,2.63,3.75,3.88,5.68.17.27,0,.85-.17,1.26q-1.83,6.26-3.69,12.52c-.06.22-.11.45-.24,1l2.2-1.51c1.67-1.17,3.35-2.32,5-3.52a2.09,2.09,0,0,0,.76-3,3.1,3.1,0,0,1-.13-.84,2.62,2.62,0,0,1,.82.46q4.65,5.7,9.24,11.45a4,4,0,0,1,.43,1.18Z"/><path class="cls-1" d="M271.39,299.79c-.47-6.09,6.5-11,11.05-10.88,5.36.14,10,5,10.2,10.71s-6.11,10.72-10.76,10.68A10.84,10.84,0,0,1,271.39,299.79Zm17.87,2.73c-.06-1.68-1.31-3.66-2.79-5.53-1.69-2.13-3.37-4.29-6.09-5.2a4.15,4.15,0,0,0-5.62,4c0,2.48,1.29,4.4,2.65,6.28a14.19,14.19,0,0,0,6,5.2C286.35,308.49,289.3,306.51,289.25,302.52Z"/><path class="cls-1" d="M235.9,318.37,240,328.61c.16.41.32.82.49,1.22.65,1.51,1.4,1.89,3,1.6a5.45,5.45,0,0,1,.94,0l.07.4c-2.16.88-4.31,1.76-6.48,2.61-.06,0-.24-.26-.36-.4,2.34-2,2.34-2,1.16-4.93l-4.29-10.67c-.65-1.6-1.51-2.09-3.26-1.9a2.41,2.41,0,0,1-.69-.14c.16-.22.27-.54.49-.63,1.77-.74,3.53-1.49,5.34-2.12a2.13,2.13,0,0,1,1.52.23c4.08,2.26,8.14,4.57,12.49,7-.87-2.18-1.62-4.09-2.39-6-.31-.78-.68-1.53-1-2.31a2.06,2.06,0,0,0-2.57-1.39,6.6,6.6,0,0,1-1.09,0l-.06-.41c1.94-.78,3.88-1.57,5.82-2.34a.36.36,0,0,1,.31.65c-2.05,1.05-1.35,2.57-.73,4.1q3,7.26,5.89,14.54a4.76,4.76,0,0,1,.1.67,11.45,11.45,0,0,1-1.45-.54q-8.29-4.56-16.57-9.14C236.55,318.67,236.37,318.6,235.9,318.37Z"/><path class="cls-1" d="M207.27,333.06c.47,2.27.9,4.46,1.37,6.64.18.83.87.94,1.6.93.46,0,.91.06,1.37.1,0,.16,0,.33,0,.49l-9.93,1.94-.17-.34a3.63,3.63,0,0,1,.78-.54c1.43-.52,1.7-.86,1.43-2.42-.53-3-1.15-6-1.74-9-.33-1.68-.68-3.36-1-5.05a1.64,1.64,0,0,0-2-1.56,5.67,5.67,0,0,1-1.18-.13l0-.41c.66-.15,1.32-.31,2-.43,2.7-.51,5.4-1.05,8.11-1.51a7.13,7.13,0,0,1,4.89.63,4.83,4.83,0,0,1,2.5,5.15c-.3,2.35-1.94,3.6-3.95,4.4A42.1,42.1,0,0,1,207.27,333.06Zm-1.8-9.44c.42,2.26.83,4.45,1.25,6.65.29,1.51.68,1.69,2.07.94a3.29,3.29,0,0,0,.67-.5c1.22-1.13,1.41-3.19.5-5.36C209.16,323.48,207.52,322.81,205.47,323.61Z"/><path class="cls-1" d="M268.73,297.63a2.29,2.29,0,0,1-.3.69c-1.26,1.34-1.35,1.75-.44,3.34,2.18,3.82,4.38,7.61,6.58,11.42l2,3.45a8.35,8.35,0,0,1-1.54-.23q-8.62-3.26-17.23-6.56c-.36-.14-.73-.24-1.39-.46,1.11,1.94,2.08,3.61,3,5.29,1.08,1.86,2.14,3.74,3.27,5.58.79,1.29,1.63,1.5,3.06,1a4.44,4.44,0,0,1,1-.13l.1.34-6.07,3.54-.31-.17a3.28,3.28,0,0,1,.45-.84c1.19-1.17,1.38-1.79.56-3.26-2.19-3.9-4.44-7.77-6.69-11.63-.65-1.11-2-1.34-4-.94.16-.23.28-.56.5-.69,1.5-.91,3-1.76,4.54-2.67a2.17,2.17,0,0,1,2.14-.14c4.25,1.71,8.52,3.38,13,5.13a6.34,6.34,0,0,0-.31-.86c-1.3-2.25-2.57-4.51-3.92-6.73-.88-1.44-1.54-1.59-3.12-1a2.38,2.38,0,0,1-.71,0c.15-.24.23-.57.45-.7,1.67-1,3.37-2,5.06-2.94Z"/><path class="cls-1" d="M293.88,276l4.56-4.65.34.08c-.06.31,0,.7-.2.92a2,2,0,0,0,.25,2.88l11.11,11.58a3.31,3.31,0,0,1,.74,1.08c-7-.4-13.86-1.5-21-2.23.31.36.51.63.74.87,2.59,2.67,5.16,5.35,7.77,8,1.3,1.31,2,1.31,3.55.26a3.25,3.25,0,0,1,.79-.24c0,.29,0,.43-.08.48-1.47,1.46-2.95,2.93-4.45,4.37-.15.15-.45.14-.68.2a2,2,0,0,1,.14-.71c1-1.6,1-2.21-.26-3.57-3.06-3.21-6.16-6.38-9.26-9.55a2.7,2.7,0,0,0-3.21-.15,1.31,1.31,0,0,1-.53.17c1.4-1.58,2.88-3.3,4.43-4.94.22-.23.82-.19,1.23-.14,4.47.58,8.93,1.2,13.4,1.8a4.31,4.31,0,0,0,.56,0l.24-.32c-2.18-2.1-4.33-4.22-6.54-6.28a2,2,0,0,0-2.74,0,4.35,4.35,0,0,1-.86.36Z"/><path class="cls-1" d="M176.67,324a1.59,1.59,0,0,1,.17.49c0,1.84,0,3.68,0,5.52,0,.23-.21.45-.32.68-.2-.19-.51-.35-.57-.58a6.71,6.71,0,0,0-2.65-4.12,5.13,5.13,0,0,0-3.53-.85,2.33,2.33,0,0,0-2.11,1.52,2.19,2.19,0,0,0,.67,2.71c1.64,1.12,3.39,2.09,5.06,3.16a17.83,17.83,0,0,1,2.51,1.82,5.34,5.34,0,0,1,1.52,6,5.91,5.91,0,0,1-5.5,4.15,14.15,14.15,0,0,1-4.65-.76c-1.18-.36-2.18-.82-3.05.46-.08.12-.35.1-.49.14v-7.58l.49-.14a9.67,9.67,0,0,1,.5,1.21c.72,2.74,2.23,4.75,5.1,5.45,2.55.61,4.7-1,4.18-3.18a4.87,4.87,0,0,0-1.87-2.44c-1.37-1-3-1.72-4.4-2.64a7.23,7.23,0,0,1-3.51-4.21c-1.06-4.06,2.72-7.83,7.07-7a12.13,12.13,0,0,1,2.8,1c1,.45,1.75.64,2.16-.63a.33.33,0,0,1,.17-.16A1.36,1.36,0,0,1,176.67,324Z"/><path class="cls-1" d="M102.72,319a6.53,6.53,0,0,1,0,1.08,7.09,7.09,0,0,0,2,6.81,4.18,4.18,0,0,0,3.51,1.16,2.53,2.53,0,0,0,2-3.69,29,29,0,0,0-2.82-4.27c-1.18-1.67-2.45-3.29-2.51-5.45a5.74,5.74,0,0,1,7-5.63,7.92,7.92,0,0,1,4.39,2.74c1.09,1.31,1.08,1.32,2.52.48.08,0,.23,0,.54,0l-2.67,6.11-.39,0a4.93,4.93,0,0,1-.14-1.17c.27-2.37-.15-4.51-2.24-5.92a4.91,4.91,0,0,0-2.56-.77,2.08,2.08,0,0,0-2.06,3,30.06,30.06,0,0,0,2.53,4,42.44,42.44,0,0,1,2.5,3.78,5.68,5.68,0,0,1-4.53,8.2,7.63,7.63,0,0,1-6.86-2.63c-.83-.91-1.67-1.82-3.07-.9,0,0-.56-.48-.52-.59.95-2.15,2-4.27,2.94-6.4Z"/><path class="cls-1" d="M328.81,256.4c.64.38,1.33.69,1.49,1.79.5,3.51-.84,6.32-3.1,8.81a9.78,9.78,0,0,1-13.85,1.12,10.71,10.71,0,0,1-.48-16.22,21.93,21.93,0,0,1,2.06-1.62c1.42-1,1.52-1.31.72-3,.29,0,.59-.16.74-.06,1.77,1.2,3.52,2.44,5.27,3.66l-.11.45a15,15,0,0,1-1.52-.2,6.25,6.25,0,0,0-6.8,2.33,5.79,5.79,0,0,0-.2,6.56,13.8,13.8,0,0,0,8.66,6.11c4,1.07,6.56-2,7.07-4.85A27.79,27.79,0,0,0,328.81,256.4Z"/><path class="cls-1" d="M128.64,321.91l1.5-5.26,17.22,4.95-1.53,5.26h-.35c-.32-1.28-.31-2.8-1-3.77s-2.21-1.49-3.58-2.34c-.61,2-1.12,3.71-1.6,5.37-.91,3.18-1.81,6.37-2.71,9.56-.62,2.18-.49,2.43,1.64,3.28.1,0,.16.16.42.43-.41.08-.69.23-.9.17-3.11-.88-6.21-1.79-9.31-2.7-.06,0-.09-.12-.33-.47a7.65,7.65,0,0,1,1.35,0,1.57,1.57,0,0,0,2.07-1.13c1.47-5,2.9-10,4.34-15.07a1.8,1.8,0,0,0,0-.42c-1.28-.63-2.74-1.08-4-.4a15.28,15.28,0,0,0-2.92,2.7Z"/><path class="cls-1" d="M320,238.31l6.88.35c4.51.21,9,.44,13.52.58a5.12,5.12,0,0,0,1.81-.7l.83-.36c-.73,2.5-4,8.49-4.92,8.77l.43-1.28c.29-.87,0-1.43-.92-1.54a28.55,28.55,0,0,0-3.1-.22,1.14,1.14,0,0,0-.77.58c-1,1.8-1.85,3.62-2.8,5.5.59.67,1.14,1.35,1.75,2,1,1.07,1.87,1,2.77-.2.21-.27.46-.51.7-.76l.39.26-3.05,6.08c-.24-.33-.45-.49-.44-.61.28-1.84-.82-3.1-1.85-4.38q-5.2-6.51-10.43-13C320.63,239.13,320.45,238.88,320,238.31Zm5.64,5,4.45,5.53,2.55-5.06Z"/><path class="cls-1" d="M155.42,321.86c.32,1.32.58,2.35.81,3.38,1.11,4.86,2.19,9.73,3.31,14.58.32,1.39.53,2.86,2.06,3.57.09,0,.09.27.23.72l-9.65-1.88c0-.16,0-.32,0-.47a5.15,5.15,0,0,1,1-.08c1.4.15,1.74-.21,1.47-1.61-.65-3.32-.65-3.31-4-3.85-.55-.09-1.09-.24-1.65-.3s-1.62-.33-1.85,0a9.6,9.6,0,0,0-1.66,3.09c-.27.88.69,1.09,1.34,1.39a3.56,3.56,0,0,1,.76.69,3.69,3.69,0,0,1-1,.08c-1.73-.31-3.45-.66-5.17-1-.15,0-.3-.09-.55-.17.16-.23.26-.53.4-.55,2-.21,2.91-1.81,3.92-3.23,3.17-4.46,6.3-8.94,9.45-13.42C154.82,322.54,155,322.35,155.42,321.86Zm-7.35,12.55,5.56,1.07-1.5-6.86Z"/><path class="cls-1" d="M223.52,338.55c-2,1-4.22,1.26-6.52,2.1.09-.43.06-.78.19-.85a3.85,3.85,0,0,0,1.71-3.14c.73-4.86,1.43-9.71,2.14-14.57.2-1.33.4-2.65.66-4.32,1,1.1,1.72,1.94,2.44,2.81,3.08,3.73,6.13,7.48,9.24,11.18,1,1.17,1.94,2.48,3.76,2.41.07,0,.15.17.43.51l-9.39,2.75-.25-.33a3.77,3.77,0,0,1,.76-.62c1.4-.62,1.51-1,.6-2.19-1.92-2.49-1.92-2.49-4.91-1.64-.88.25-1.75.56-2.65.74a1.32,1.32,0,0,0-1.19,1.5c0,.55-.18,1.11-.17,1.67,0,1.3.43,1.64,1.78,1.61h1.18Zm2.87-7.8-4.49-5.48-.94,7Z"/><path class="cls-1" d="M36.6,238.26c-.16-.09-.25-.1-.29-.16-1.33-2-1.56-2-3.18-.06-2.16,2.62-4.35,5.21-6.52,7.82-.12.15-.23.3-.51.67,2.8-.14,5.37-.26,7.93-.4a32.87,32.87,0,0,0,3.46-.27c1.67-.27,1.92-.77,1.47-2.4a5.09,5.09,0,0,1-.08-1l.42-.12,3,6c-.43,0-.72.05-.83-.05-1.39-1.29-3.1-1.12-4.77-1.06-4.74.2-9.49.44-14.23.68-.76,0-1.51.14-2.27.15a3.77,3.77,0,0,1-1-.26,3.43,3.43,0,0,1,.38-.92q4.6-5.59,9.24-11.16c.76-.92,1.53-1.84,2.27-2.78s1.45-1.74,1-3c0-.1.12-.26.39-.81,1.53,3,2.94,5.81,4.31,8.59C36.92,237.85,36.7,238.09,36.6,238.26Z"/><path class="cls-1" d="M130,316.91c-.57-.05-.9-.05-1.22-.12-1.34-.29-1.87-.08-2.32,1.19q-2.45,7-4.83,14c-.39,1.15-.05,1.7,1.13,2.25a3.54,3.54,0,0,1,.75.68,3.62,3.62,0,0,1-1.05,0c-2.65-.89-5.28-1.8-7.92-2.72a.6.6,0,1,1-.28-.84c2,.32,2.21.25,2.89-1.68q2.26-6.49,4.48-13c.57-1.66.37-2-1.25-2.76a1.13,1.13,0,0,1-.58-.61c.24,0,.51-.17.72-.1,3.06,1,6.1,2.11,9.15,3.18C129.7,316.39,129.72,316.49,130,316.91Z"/><path class="cls-1" d="M305.54,262.93c-1.12,2.7-1.11,2.7,1.18,4.61,3.34,2.78,6.66,5.59,10,8.35,1.12.92,1.62.82,2.69-.18a3.87,3.87,0,0,1,.89-.47l.23.38q-3.41,3.88-6.83,7.76s-.19-.1-.29-.15-.07-.19,0-.23c1.4-2.11,1.41-2.19-.49-3.81q-5.23-4.47-10.52-8.88a1.72,1.72,0,0,0-2.65.13,4.17,4.17,0,0,0-.49.78l-.43-.27a2.22,2.22,0,0,1,.24-.8q2.79-3.36,5.63-6.68A3.55,3.55,0,0,1,305.54,262.93Z"/><path class="cls-1" d="M19.31,222.75a2.38,2.38,0,0,1,2.49,2.38c0,1.24-1.35,2.85-2.4,2.83a2.86,2.86,0,0,1-2.7-2.86A2.59,2.59,0,0,1,19.31,222.75Z"/><path class="cls-1" d="M339.26,230.9a2.36,2.36,0,0,1-2.24-2,2.71,2.71,0,0,1,2.51-2.79,2.48,2.48,0,0,1,2.72,2.34C342.29,229.72,340.83,230.9,339.26,230.9Z"/><path class="cls-1" d="M188.36,331.26a2.6,2.6,0,1,1-.4,5.18,3.65,3.65,0,0,1-2.33-2.15A3.49,3.49,0,0,1,188.36,331.26Z"/><path class="cls-1" d="M255.07,145.74H233.56q-21.84,0-43.67,0a2,2,0,0,0-2,1c-3.15,5-11.2,4.9-14-.17-.42-.78-1-.74-1.71-.74H111.86c-1.68,0-3.36-.06-5,0-1,0-1.21-.33-1.2-1.25,0-7.88,0-15.76,0-23.64q0-38.21,0-76.43c0-1.19.38-1.54,1.48-1.52,2.28,0,4.56.06,6.84,0a3.21,3.21,0,0,0,1.89-.74c1.68-1.52,2.31-1.78,4.17-.54A8.63,8.63,0,0,0,125.39,43c5.31-.19,10.63-.22,15.95-.34,2,0,4,0,6-.24a31.11,31.11,0,0,0,4.25-1.12,31.11,31.11,0,0,1,15.84-.46,27,27,0,0,1,13.13,8c.33.35.63.71,1.07,1.21.46-.49.81-.88,1.18-1.26a27.94,27.94,0,0,1,13.82-8.16,24.22,24.22,0,0,1,12.54.14c2.07.62,4.1,1.4,6.17,2.06a6.37,6.37,0,0,0,1.88.28c6.31,0,12.63-.1,18.94.07a9,9,0,0,0,6.2-2.22c1.06-.85,1.58-.81,2.14.33.88,1.78,2.29,1.88,4,1.79,1.95-.1,3.91,0,5.87.09A1.09,1.09,0,0,1,255,44c.09,1,0,2,0,3q0,48.71,0,97.42C255.07,144.81,255.07,145.2,255.07,145.74Zm-1.39-1.25.09-.25h-.08l.08-.48q0-.47,0-.95c0-.16,0-.32,0-.48s.06-.05.06-.08a1,1,0,0,0-.06-.17q0-7.8,0-15.6v-2.86q0-11.77,0-23.53c.06-1.94.14-3.87.15-5.81,0-1.18-.1-2.36-.15-3.54q0-1.21,0-2.41,0-1.56,0-3.11c0-.16,0-.33,0-.49a6.42,6.42,0,0,0,.16-1q0-10.48,0-21a6.31,6.31,0,0,0-.17-1q0-7.68,0-15.36c0-.16,0-.32,0-.48v-1s.07-.06.07-.08a1.14,1.14,0,0,0-.09-.17l-6.3-.28c.9,1.29,1.5,2.27,3,2.28.76,0,1.38.42,1.38,1.54q-.06,46.5,0,93c0,1.11-.4,1.34-1.39,1.34q-32.52,0-65,0a1.45,1.45,0,0,1-1.47-.9c-.78-1.4-1.74-2.7-2.63-4l-.51,0a28.29,28.29,0,0,0-2,2.83,3.49,3.49,0,0,1-3.52,2.12c-21.6-.14-43.19-.16-64.79-.21h-1.34V46.56c1.9-.14,3.76-.3,4.86-2H107c-.06.65-.15,1.24-.15,1.83,0,1.72.1,3.44.1,5.15q0,37.74,0,75.47c0,5.76,0,11.52,0,17.27a8.23,8.23,0,0,0,1.44.26H174.7a15.93,15.93,0,0,0,2.51,3,6.19,6.19,0,0,0,9.54-3l.93,0a8.22,8.22,0,0,0,1.26.19q31.75,0,63.5,0a6.87,6.87,0,0,0,1.24-.23ZM126,45.12a23.14,23.14,0,0,0,15,.06l1.17-.32-.05-.18h-17l0,.17Zm124.34,96.2a6.45,6.45,0,0,0,.23-1.21q0-45.16,0-90.32a10.12,10.12,0,0,0-.19-1.38l-1.68-.69c0,.65,0,1.11,0,1.58q.06,16.49.12,33c0,15.23,0,30.46.09,45.69a4.34,4.34,0,0,1-2.15,4,63.93,63.93,0,0,1-8.89,4.86,27.86,27.86,0,0,1-17.25,1.59c-3.17-.74-6.21-2-9.32-3-6.4-2-12.72-2.23-18.82,1.07a24.31,24.31,0,0,0-6.16,4.77h.93l62,0C249.6,141.36,250,141.33,250.32,141.31ZM117.83,42.73v1.2q0,19.55,0,39.11,0,20,0,40.07a2.64,2.64,0,0,0,.4,1.65,14,14,0,0,0,2.64,2.23,27.74,27.74,0,0,0,14,4.25,21.84,21.84,0,0,0,10.62-1.82c1.95-.92,3.88-1.91,5.9-2.64,9.2-3.3,17.74-2.11,25.45,4,1.48,1.19,2.86,2.51,4.51,4v-20.9q0-30.29,0-60.58a2.36,2.36,0,0,0-.31-1.46,34.53,34.53,0,0,0-4.48-4.61c-7.25-5.52-15.45-6.79-24.16-4.65-4.13,1-8.08,2.74-12.19,3.82a24,24,0,0,1-14.39-.35C123.16,45.12,120.57,43.88,117.83,42.73Zm64.73,90.84c.52-.47.79-.76,1.1-1a51.18,51.18,0,0,1,4.91-3.38A27.77,27.77,0,0,1,203.93,126a35.73,35.73,0,0,1,10.59,2.32,32.39,32.39,0,0,0,11.42,2.32,25.14,25.14,0,0,0,14.79-4.77,3.12,3.12,0,0,0,1.51-2.85q-.07-39.28,0-78.57c0-.35,0-.7-.05-1.18a23.68,23.68,0,0,1-2.77,1.31A93.51,93.51,0,0,1,229,47.62a13.6,13.6,0,0,1-6.07-.54,78.24,78.24,0,0,1-8.72-3.23,27,27,0,0,0-17.54-1.58c-5.63,1.45-9.83,5.11-13.6,9.32a2.91,2.91,0,0,0-.63,1.79c0,4.72.07,9.43.07,14.15q0,31.61,0,63.22C182.56,131.58,182.56,132.42,182.56,133.56Zm-72.43,7.72h65.46a15.93,15.93,0,0,0-6.81-6.69,19.65,19.65,0,0,0-18.42-.24,39.9,39.9,0,0,1-14.17,4.09c-8.47.68-15.92-2.09-22.75-6.9a2.61,2.61,0,0,1-1.21-2.56c0-.48,0-1,0-1.44q0-39.12,0-78.24c0-.36,0-.72,0-1.08.07-.79-.36-.93-1-.91s-1.22.07-1.12,1a8.52,8.52,0,0,1,0,1v92ZM242.5,126.37c-.51.36-.92.67-1.34,1a26.39,26.39,0,0,1-12.94,4.9,31.44,31.44,0,0,1-14-2.52,30.84,30.84,0,0,0-17.38-1.79,26.36,26.36,0,0,0-14,7.3c-.23.23-.47.75-.36,1,.75,1.61,1.6,3.18,2.41,4.76l.43.18a7.58,7.58,0,0,1,.71-1.09,21.43,21.43,0,0,1,13.84-7.12A33,33,0,0,1,214.45,135c3.32,1.17,6.6,2.44,10.14,2.73,8.1.66,15-2.48,21.5-7.05Zm1.22-83.19-.36.24v1.14q0,38.68-.06,77.35a6.13,6.13,0,0,0,1.9,4.88c.69.65,1.29,1.41,2.13,2.34,0-.65.07-.92.07-1.19q0-40,0-80a1.67,1.67,0,0,0-.21-1C246.06,45.67,244.88,44.44,243.72,43.19Zm-63.27,92.52c-1-1-1.82-2-2.83-2.91a24.94,24.94,0,0,0-14.57-6,23.65,23.65,0,0,0-12.53,1.82,34.89,34.89,0,0,1-11.29,3.7,27.1,27.1,0,0,1-18.39-4.19c-1.09-.71-2.08-1.57-3.16-2.39l-4.34,4a3.37,3.37,0,0,0,.39.41c6.8,4.95,14.25,7.75,22.82,7a32,32,0,0,0,12.1-3.49,21.46,21.46,0,0,1,12-2.59c7.24.59,12.81,3.79,16.22,10.52Zm-67.13-7.31.27.18a19,19,0,0,1,1.76-1.89,3.76,3.76,0,0,0,1.36-3.22q-.06-39.4,0-78.81c0-.37,0-.75-.09-1.35-.94.89-1.67,1.65-2.47,2.33a2.34,2.34,0,0,0-.83,2q0,39.88,0,79.77C113.32,127.71,113.32,128.05,113.32,128.4ZM234.89,44.77h-15.4C222.84,46.83,231.12,46.43,234.89,44.77Z"/><path class="cls-8" d="M175.75,182.94c.12-1.37.3-3.16.42-4.95a3.55,3.55,0,0,1,2.32-3.16c1.54-.66,2.86.24,4.1,1,.35.21.49,1,.52,1.51q.27,5.13.42,10.27c0,.3-.32.88-.52.89a49.51,49.51,0,0,1-6.08,0c-.44,0-1-1.06-1.14-1.7A26,26,0,0,1,175.75,182.94Zm6.65-.9h-.05c0-1.24,0-2.47,0-3.71A2.51,2.51,0,0,0,180,176c-1,0-2.88,1.37-2.92,2.24-.12,2.74-.18,5.49-.19,8.24a1.18,1.18,0,0,0,.84.8c1.16-.08,2.31-.38,3.47-.5.81-.08,1.23-.32,1.18-1.23C182.35,184.36,182.4,183.2,182.4,182Z"/><path class="cls-8" d="M146.56,188.09a13.51,13.51,0,0,1-1.77.27c-1.44,0-2.88,0-4.32,0a1.73,1.73,0,0,1-1.83-2.07c.15-2.79.25-5.59.28-8.38a3.6,3.6,0,0,1,2.42-3.26,3.28,3.28,0,0,1,3.55.6,3.58,3.58,0,0,1,1.62,3.1c0,.64,0,1.28,0,1.92C146.56,182.82,146.56,185.37,146.56,188.09Zm-1.35-1.68c0-2.75,0-5.42,0-8.09a2.61,2.61,0,0,0-2.5-2.35,3.34,3.34,0,0,0-2.8,2.56c-.06,1.6-.16,3.19-.2,4.78,0,1.18,0,2.37,0,3.59Z"/><path class="cls-8" d="M220,188.87h-7.47c0-2.67,0-5.3,0-7.92a13.72,13.72,0,0,1,.39-3.4,3.85,3.85,0,0,1,3-2.85c1.67-.37,4.24,1.22,4.29,2.92.1,3.38,0,6.77,0,10.16A5.41,5.41,0,0,1,220,188.87Zm-1.41-2c0-3.12,0-6.18,0-9.24a1.23,1.23,0,0,0-.64-.82c-2.23-1.12-3.82-.1-3.88,2.4,0,1-.14,2.07-.16,3.11,0,1.66,0,3.32,0,5Z"/><path class="cls-10" d="M95.32,301.93c1.72,1,3.65,1.73,3.69,3.93a5,5,0,0,1-2.58,4.57c-2,1.1-3.55-.27-5.33-1.18Z"/><path class="cls-9" d="M289.25,302.52c0,4-2.91,6-5.89,4.76a14.19,14.19,0,0,1-6-5.2c-1.37-1.88-2.68-3.8-2.65-6.28a4.15,4.15,0,0,1,5.62-4c2.72.91,4.4,3.08,6.09,5.2C287.94,298.86,289.2,300.84,289.25,302.52Z"/><path class="cls-10" d="M205.47,323.61c2-.8,3.69-.14,4.48,1.73.91,2.16.73,4.23-.5,5.36a3.29,3.29,0,0,1-.67.5c-1.39.74-1.78.57-2.07-.94C206.29,328.07,205.89,325.88,205.47,323.61Z"/><path class="cls-10" d="M325.67,243.35l7,.47-2.55,5.06Z"/><path class="cls-10" d="M148.07,334.41l4.05-5.79,1.5,6.86Z"/><path class="cls-10" d="M226.4,330.74,221,332.29l.94-7Z"/><path class="cls-9" d="M117.83,42.73c2.74,1.15,5.33,2.39,8,3.35a24,24,0,0,0,14.39.35c4.12-1.08,8.07-2.81,12.19-3.82,8.71-2.14,16.91-.87,24.16,4.65a34.53,34.53,0,0,1,4.48,4.61,2.37,2.37,0,0,1,.31,1.46q0,30.29,0,60.58v20.9c-1.65-1.47-3-2.79-4.51-4-7.71-6.16-16.25-7.35-25.45-4-2,.72-3.95,1.72-5.9,2.63a21.86,21.86,0,0,1-10.62,1.82,27.74,27.74,0,0,1-14-4.25,14,14,0,0,1-2.64-2.23,2.64,2.64,0,0,1-.4-1.65q0-20,0-40.07,0-19.55,0-39.11ZM126,67.79c1.62,1.93,3.29,3.7,4.72,5.66,4.73,6.49,7.65,13.9,10.69,21.25,2.17,5.24,4.47,10.42,6.74,15.61.15.34.58.77.89.77s.75-.41.93-.74c.85-1.63,1.73-3.25,2.42-4.95,3.22-7.83,6.29-15.72,9.6-23.51a38.33,38.33,0,0,1,8.44-12.69c.35-.34.66-.71,1-1.07-4.84,1.11-9.56-.63-14.58-.12a11.14,11.14,0,0,0,1.24,1.09c2.63,1.62,3.34,3.78,2.16,6.58q-3.57,8.44-7.14,16.88c-.57,1.35-1.14,2.71-1.81,4-.44.87-1,.81-1.46-.06-1.29-2.62-2.66-5.2-3.82-7.87-2.18-5-4.23-10.07-6.37-15.1a3.82,3.82,0,0,1,1.26-4.94c.18-.15.15-.55.24-.93-3.85.73-7.47,1-11.1-.09A5.36,5.36,0,0,0,126,67.79Zm33.4,41.46c.07,1.48,1,2.63,2.06,2.55s2.6-1.48,2.57-2.33a2.64,2.64,0,0,0-2.75-2.4A2.17,2.17,0,0,0,159.4,109.26Z"/><path class="cls-9" d="M182.56,133.56v-2.82q0-31.61,0-63.21c0-4.72-.09-9.43-.07-14.15a2.91,2.91,0,0,1,.63-1.79c3.77-4.21,8-7.87,13.6-9.32a27.06,27.06,0,0,1,17.54,1.58A78.16,78.16,0,0,0,223,47.08a13.61,13.61,0,0,0,6.07.54,93.51,93.51,0,0,0,10.35-3.09,23.6,23.6,0,0,0,2.77-1.31c0,.48.05.83.05,1.18q0,39.28,0,78.57a3.12,3.12,0,0,1-1.51,2.85,25.14,25.14,0,0,1-14.79,4.77,32.36,32.36,0,0,1-11.42-2.32A35.7,35.7,0,0,0,203.93,126a27.77,27.77,0,0,0-15.36,3.25,51,51,0,0,0-4.91,3.38C183.35,132.81,183.08,133.1,182.56,133.56Zm27.63-41.48a19.7,19.7,0,0,0,9,.79c3.66-.51,7.06-1.65,9.47-4.58,4-4.9,2.88-13.48-2.21-17.31a13.68,13.68,0,0,0-8.63-2.76,141.16,141.16,0,0,1-17-.52L198,67.45c.29.35.39.48.5.59a7.27,7.27,0,0,0,.79.73,9.25,9.25,0,0,1,4,8c0,8.63.12,17.27.17,25.9a7.26,7.26,0,0,1-3.85,6.82c-.59.34-1.15.73-2,1.28l16.49.38a8,8,0,0,1-3.87-6.59C210.06,100.41,210.19,96.26,210.19,92.08Zm13.91,14.76a2.35,2.35,0,0,0-2.59,2.4,2.21,2.21,0,0,0,2.2,2.39c1.36,0,2.56-.91,2.57-1.94C226.33,107.45,225.86,106.85,224.1,106.85Z"/><path class="cls-10" d="M253.77,142.32c0,.16,0,.32,0,.48q0,.47,0,.95l-.08.48H187.93a6,6,0,0,0-1.18.24,6.19,6.19,0,0,1-9.54,3,15.86,15.86,0,0,1-2.51-3,6.11,6.11,0,0,0-1.22-.25H107c0-5.76,0-11.52,0-17.28q0-37.74,0-75.47c0-1.72-.08-3.44-.1-5.15,0-.59.09-1.18.15-1.83h6.9c-1.11,1.75-3,1.91-4.86,2v95.81h1.34c21.6.05,43.19.07,64.79.21a3.49,3.49,0,0,0,3.52-2.12,28.29,28.29,0,0,1,2-2.83l.51,0c.89,1.34,1.85,2.63,2.63,4a1.44,1.44,0,0,0,1.47.9q32.52,0,65,0c1,0,1.39-.23,1.39-1.34q0-46.5,0-93c0-1.12-.61-1.53-1.38-1.54-1.47,0-2.07-1-3-2.28l6.3.28c0,.08,0,.17,0,.25,0,.32,0,.63,0,1v.48q0,7.68,0,15.36c0,4.14-.05,8.27-.05,12.41,0,3.54,0,7.08.06,10.62,0,.16,0,.33,0,.49q0,1.55,0,3.11,0,1.21,0,2.41,0,4.67,0,9.35,0,11.77,0,23.53,0,1.43,0,2.86,0,7.8,0,15.6C253.77,142.16,253.77,142.24,253.77,142.32Z"/><path class="cls-10" d="M110.13,141.28v-92a8.52,8.52,0,0,0,0-1c-.1-.89.44-.94,1.12-1s1.1.12,1,.91c0,.36,0,.72,0,1.08q0,39.12,0,78.24c0,.48,0,1,0,1.44a2.61,2.61,0,0,0,1.21,2.56c6.82,4.81,14.28,7.59,22.75,6.9a39.89,39.89,0,0,0,14.17-4.09,19.65,19.65,0,0,1,18.42.24,15.92,15.92,0,0,1,6.81,6.69Z"/><path class="cls-10" d="M250.32,141.31c-.36,0-.72,0-1.08,0l-62,0h-.93a24.33,24.33,0,0,1,6.16-4.77c6.1-3.3,12.42-3,18.82-1.07,3.12,1,6.16,2.23,9.32,3a27.86,27.86,0,0,0,17.25-1.59,64.14,64.14,0,0,0,8.89-4.86,4.34,4.34,0,0,0,2.15-4c-.12-15.23-.07-30.46-.09-45.69q0-16.49-.12-33c0-.47,0-.93,0-1.58l1.68.69c0,.4,0,.8,0,1.2Z"/><path class="cls-10" d="M242.5,126.37l3.59,4.3c-6.54,4.57-13.4,7.71-21.5,7.05-3.54-.29-6.82-1.56-10.14-2.73a33,33,0,0,0-14.59-2.06A21.43,21.43,0,0,0,186,140a7.53,7.53,0,0,0-.71,1.09l-.43-.18c-.81-1.58-1.66-3.15-2.41-4.76-.1-.23.13-.75.36-1a26.36,26.36,0,0,1,14-7.3,30.84,30.84,0,0,1,17.38,1.79,31.46,31.46,0,0,0,14,2.52,26.38,26.38,0,0,0,12.94-4.9C241.58,127,242,126.74,242.5,126.37Z"/><path class="cls-10" d="M243.72,43.19c1.16,1.25,2.34,2.48,3.46,3.76a1.67,1.67,0,0,1,.21,1q0,40,0,80c0,.27,0,.54-.07,1.19-.84-.94-1.44-1.69-2.13-2.34a6.13,6.13,0,0,1-1.9-4.88q.12-38.68.06-77.35V43.43Z"/><path class="cls-10" d="M180.46,135.71l-3.62,5.83c-3.42-6.73-9-9.93-16.22-10.52a21.45,21.45,0,0,0-12,2.59,32,32,0,0,1-12.1,3.49c-8.57.77-16-2-22.82-7a3.37,3.37,0,0,1-.39-.41l4.34-4c1.08.82,2.07,1.68,3.16,2.39a27.1,27.1,0,0,0,18.39,4.19,34.89,34.89,0,0,0,11.29-3.7,23.65,23.65,0,0,1,12.53-1.82,24.94,24.94,0,0,1,14.57,6C178.64,133.68,179.5,134.72,180.46,135.71Z"/><path class="cls-10" d="M113.32,128.4v-1q0-39.88,0-79.77a2.34,2.34,0,0,1,.83-2c.8-.68,1.54-1.44,2.47-2.33,0,.61.09,1,.09,1.35q0,39.4,0,78.81a3.76,3.76,0,0,1-1.36,3.22,19,19,0,0,0-1.76,1.89Z"/><path class="cls-15" d="M250.32,141.31q0-45.86,0-91.72c0-.4,0-.8,0-1.2a10.1,10.1,0,0,1,.19,1.38q0,45.16,0,90.32A6.35,6.35,0,0,1,250.32,141.31Z"/><path class="cls-10" d="M234.89,44.77c-3.77,1.66-12,2.07-15.4,0Z"/><path class="cls-10" d="M141,45.18a23.14,23.14,0,0,1-15-.06,3.69,3.69,0,0,1,.89-.22q6.55,0,13.11,0A3.74,3.74,0,0,1,141,45.18Z"/><path class="cls-16" d="M107,144.24h66.44a6.12,6.12,0,0,1,1.22.25H108.48A8.32,8.32,0,0,1,107,144.24Z"/><path class="cls-16" d="M186.75,144.49a6,6,0,0,1,1.18-.24h65.85l-.09.25h0l-65.17,0c-.28,0-.56,0-.84,0Z"/><path class="cls-17" d="M187.67,144.51c.28,0,.56,0,.84,0l65.17,0a7,7,0,0,1-1.24.23q-31.75,0-63.5,0A8.35,8.35,0,0,1,187.67,144.51Z"/><path class="cls-17" d="M253.75,84.71c0-3.54-.06-7.08-.06-10.62,0-4.14,0-8.28.05-12.41a6.31,6.31,0,0,1,.17,1q0,10.48,0,21A6.44,6.44,0,0,1,253.75,84.71Z"/><path class="cls-16" d="M141,45.18a3.73,3.73,0,0,0-1-.28q-6.55,0-13.11,0a3.71,3.71,0,0,0-.89.22l-.94-.26,0-.17h17l.05.18Z"/><path class="cls-17" d="M253.75,100.07q0-4.67,0-9.35c.06,1.18.16,2.36.15,3.54C253.9,96.2,253.81,98.14,253.75,100.07Z"/><path class="cls-17" d="M253.75,88.32q0-1.56,0-3.11Q253.75,86.76,253.75,88.32Z"/><path class="cls-17" d="M253.76,126.47q0-1.43,0-2.86Q253.76,125,253.76,126.47Z"/><path class="cls-17" d="M253.77,143.75c0-.32,0-.63,0-.95C253.77,143.12,253.77,143.44,253.77,143.75Z"/><path class="cls-17" d="M253.73,44.88c0-.08,0-.17,0-.25a1.06,1.06,0,0,1,.09.17S253.76,44.86,253.73,44.88Z"/><path class="cls-17" d="M253.77,142.32c0-.08,0-.16,0-.25a.94.94,0,0,1,.06.17S253.79,142.3,253.77,142.32Z"/><path class="cls-17" d="M253.69,144.48l.09-.25Z"/><path class="cls-13" d="M182.4,182c0,1.16-.05,2.32,0,3.47.05.91-.37,1.15-1.18,1.23-1.16.12-2.31.41-3.47.5a1.18,1.18,0,0,1-.84-.8c0-2.75.08-5.49.19-8.24,0-.87,2-2.26,2.92-2.24a2.51,2.51,0,0,1,2.3,2.38c0,1.23,0,2.47,0,3.71Z"/><path class="cls-13" d="M145.21,186.41l-5.51.49c0-1.22,0-2.4,0-3.59,0-1.6.14-3.19.2-4.78a3.34,3.34,0,0,1,2.8-2.56,2.61,2.61,0,0,1,2.5,2.35C145.23,181,145.21,183.66,145.21,186.41Z"/><path class="cls-13" d="M218.61,186.9l-4.71.41c0-1.64,0-3.3,0-5,0-1,.14-2.07.16-3.11.05-2.51,1.65-3.52,3.88-2.4a1.23,1.23,0,0,1,.64.82C218.63,180.73,218.61,183.78,218.61,186.9Z"/><path class="cls-1" d="M126,67.79a5.37,5.37,0,0,1,4-.2c3.63,1.13,7.24.82,11.1.09-.09.37-.06.78-.24.93a3.82,3.82,0,0,0-1.26,4.94c2.14,5,4.18,10.1,6.37,15.1,1.16,2.67,2.54,5.25,3.82,7.87.43.87,1,.92,1.46.06.66-1.31,1.23-2.67,1.81-4q3.58-8.44,7.14-16.88c1.19-2.8.47-5-2.16-6.58A11,11,0,0,1,156.82,68c5-.51,9.74,1.24,14.58.12-.33.36-.64.73-1,1.07A38.34,38.34,0,0,0,162,81.88c-3.32,7.79-6.38,15.68-9.6,23.51-.7,1.69-1.57,3.32-2.42,4.95-.18.34-.61.75-.93.74s-.74-.43-.89-.77c-2.27-5.19-4.57-10.37-6.74-15.61-3-7.35-6-14.76-10.69-21.25C129.29,71.49,127.61,69.72,126,67.79Zm11.57,2.42-8.65-1.44L130,70.23c.91,1.25,1.88,2.46,2.71,3.76,4,6.2,6.78,13,9.63,19.76,2.08,4.94,4.2,9.87,6.43,15.12a14.73,14.73,0,0,0,1.16-1.61c1-2,2.09-4,3-6.12,2.41-5.56,4.67-11.18,7.13-16.72,2.18-4.9,4.55-9.72,6.84-14.57l-6.38-1-.18.32c2.48,2.69,1.86,5.47.41,8.31-.9,1.78-1.72,3.6-2.52,5.42-2.34,5.33-4.65,10.67-7,16a13.7,13.7,0,0,1-.94,1.53c-.22-.35-.3-.44-.35-.54a269.48,269.48,0,0,1-11.3-25.7C138.2,73,138,71.75,137.57,70.22Z"/><path class="cls-1" d="M159.4,109.26a2.17,2.17,0,0,1,1.87-2.18,2.64,2.64,0,0,1,2.75,2.4c0,.85-1.51,2.26-2.57,2.33S159.47,110.74,159.4,109.26Zm3.6-.13c-.7-.45-1.15-.91-1.33-.82a5.45,5.45,0,0,0-1.16,1.09c.33.32.71.92,1,.88C161.92,110.21,162.29,109.7,163,109.12Z"/><path class="cls-1" d="M210.19,92.08c0,4.18-.13,8.33,0,12.46a8,8,0,0,0,3.87,6.59l-16.49-.38c.86-.55,1.42-.94,2-1.28a7.27,7.27,0,0,0,3.85-6.82c-.06-8.63-.16-17.27-.17-25.9a9.25,9.25,0,0,0-4-8,7.26,7.26,0,0,1-.79-.73c-.11-.11-.21-.24-.5-.59l2.82.26a141.58,141.58,0,0,0,17,.52A13.68,13.68,0,0,1,226.44,71c5.1,3.83,6.25,12.41,2.21,17.31-2.41,2.93-5.81,4.07-9.47,4.58A19.71,19.71,0,0,1,210.19,92.08Zm-8.81,17.54L211,110c-.68-1.68-1.79-3.27-1.92-4.94-.37-4.77-.34-9.57-.46-14.35,0,0,.1-.1.18-.18a.84.84,0,0,1,.32,0,21.53,21.53,0,0,0,10.44,1.34c5.4-.54,11.15-4.56,10.33-11.65-.33-2.87-1-5.59-3.16-7.67-2.5-2.37-5.68-3-8.92-3.13-5.3-.16-10.61,0-15.93,0,0-.08,0,0,0,.07a7.3,7.3,0,0,0,.51.65,7.34,7.34,0,0,1,2.07,5.28c-.12,9-.05,17.92-.06,26.87C204.45,105.06,203.81,107.62,201.38,109.63Z"/><path class="cls-1" d="M224.1,106.85c1.76,0,2.23.61,2.19,2.86,0,1-1.22,1.94-2.57,1.94a2.21,2.21,0,0,1-2.2-2.39A2.35,2.35,0,0,1,224.1,106.85Zm-.25.79c-.54.75-1.12,1.23-1,1.54s.7.79,1.08,1.18c.38-.39,1-.74,1.05-1.17S224.39,108.36,223.84,107.63Z"/><path class="cls-18" d="M137.57,70.22c.41,1.53.64,2.76,1.06,3.93a269.12,269.12,0,0,0,11.3,25.7c.05.1.13.2.35.54a13.52,13.52,0,0,0,.94-1.53c2.34-5.33,4.65-10.67,7-16,.8-1.82,1.62-3.65,2.52-5.42,1.45-2.84,2.07-5.62-.41-8.31l.18-.32,6.38,1c-2.29,4.85-4.66,9.67-6.84,14.57-2.46,5.54-4.72,11.16-7.13,16.72-.9,2.08-2,4.1-3,6.12a14.73,14.73,0,0,1-1.16,1.61c-2.24-5.25-4.36-10.18-6.43-15.12C139.46,87,136.67,80.19,132.68,74c-.84-1.3-1.8-2.51-2.71-3.76l-1.06-1.46Z"/><path class="cls-18" d="M163,109.12c-.71.57-1.07,1.08-1.5,1.15-.28,0-.66-.57-1-.88a5.4,5.4,0,0,1,1.16-1.09C161.84,108.21,162.3,108.68,163,109.12Z"/><path class="cls-18" d="M201.38,109.63c2.43-2,3.07-4.57,3.07-7.37,0-9-.05-17.92.06-26.87a7.35,7.35,0,0,0-2.07-5.28,7.48,7.48,0,0,1-.51-.65c0-.05,0-.15,0-.07,5.31,0,10.62-.12,15.93,0,3.24.1,6.42.76,8.92,3.13,2.19,2.08,2.83,4.8,3.16,7.67.82,7.09-4.93,11.11-10.33,11.65a21.53,21.53,0,0,1-10.45-1.34.84.84,0,0,0-.32,0c-.08.07-.18.13-.18.18.12,4.79.09,9.58.46,14.35.13,1.67,1.24,3.26,1.92,4.94Zm7.38-26.82h-.14c0,.92,0,1.84,0,2.76,0,2.71.17,3,2.7,3.83.41.14.85.19,1.28.29,7.22,1.7,12.72-3.32,12.07-10.34A9.27,9.27,0,0,0,215,70.84c-1.65.13-3.28.6-4.92.88a1.49,1.49,0,0,0-1.38,1.74C208.78,76.57,208.76,79.68,208.76,82.8Z"/><path class="cls-18" d="M223.84,107.63c.55.73,1.15,1.18,1.1,1.54s-.68.78-1.05,1.17c-.38-.39-1-.72-1.08-1.18S223.31,108.39,223.84,107.63Z"/><path class="cls-1" d="M208.76,82.8c0-3.11,0-6.23,0-9.35a1.49,1.49,0,0,1,1.38-1.74c1.64-.28,3.27-.75,4.92-.88a9.27,9.27,0,0,1,9.61,8.51c.65,7-4.84,12-12.07,10.34-.43-.1-.87-.15-1.28-.29-2.53-.84-2.72-1.13-2.7-3.83,0-.92,0-1.84,0-2.76Zm1.4.11H210c0,1.2-.08,2.41,0,3.59a2.14,2.14,0,0,0,.82,1.39,7.51,7.51,0,0,0,4.85.93,8.26,8.26,0,0,0,7.71-6.38c.75-3.36-.71-8.34-4.4-10-2.64-1.17-5.19-.94-7.83-.37a1.28,1.28,0,0,0-1.08,1.47C210.19,76.68,210.16,79.8,210.16,82.91Z"/><path class="cls-10" d="M210.16,82.91c0-3.12,0-6.23,0-9.35a1.28,1.28,0,0,1,1.08-1.47c2.64-.57,5.19-.8,7.83.37,3.68,1.63,5.15,6.61,4.4,10a8.26,8.26,0,0,1-7.71,6.38,7.52,7.52,0,0,1-4.85-.93,2.14,2.14,0,0,1-.82-1.39c-.12-1.19,0-2.39,0-3.59Z"/></svg>